<?xml version="1.0" encoding="utf-8"?>
<!-- Generator: Adobe Illustrator 16.0.3, SVG Export Plug-In . SVG Version: 6.00 Build 0)  -->
<!DOCTYPE svg PUBLIC "-//W3C//DTD SVG 1.1//EN" "http://www.w3.org/Graphics/SVG/1.1/DTD/svg11.dtd">
<svg version="1.1" id="GitHubDark-Script" xmlns="http://www.w3.org/2000/svg" xmlns:xlink="http://www.w3.org/1999/xlink" x="0px"
	 y="0px" width="740px" height="180px" viewBox="0 0 740 180" enable-background="new 0 0 740 180" xml:space="preserve">
<g id="_x7D_">
	<path id="_x7D__1_" fill="#FF6262" d="M679,14h5.402c9.149,0,16.398,2.25,20.598,6c4.35,4.05,6,9.85,6,19v12c0,6.9,0.05,10.55,2,14
		c2.55,4.5,8,9,14,9v15c-6,0-10.45,2.5-13,7c-1.95,3.45-3.049,9.1-3.049,16L711,133v6c0,18.149-8.148,26-26.598,26h-5.4L679,149
		c6.998,0,11.351-1.051,13-3c1.57-1.856,1.963-5.914,1.997-13c0.002-0.359,0.003-16.477,0.003-16.854c0-9.6,0.801-16.35,2-20.25
		c1.65-5.55,5.7-10.547,12-14.896c-6.149-4.2-10.398-8.953-12.049-14.652C694.752,62.448,694,55.45,694,46c0-7.8-0.35-12.05-2-14
		c-1.649-1.95-6.25-3-13-3V14z"/>
</g>
<g id="Dark">
	<path fill="#4B4B4B" d="M617,131c0.3-1.949,1-6.2,1-11V40.704c0-4.65-0.7-7.904-1-9.704h18c-0.3,1.95-1,5.054-1,9.404L633.999,83
		L644,69.053c1.5-1.95,2.25-3.403,3-5.053h20l-20,26l22,41h-18c-0.449-1.5-1.252-4.05-3.201-7.65l-13.8-26.398L634,119.9
		c0,5.1,0.7,8.85,1,11.1H617z"/>
	<path fill="#4B4B4B" d="M573,131c0.3-1.949,1-5.4,1-10.199V74.152c0-4.65-0.7-8.353-1-10.152h17v5c3-3.45,7.8-6,12-6
		c1.8,0,2.799,0.25,4.898,1L607,81c-2.55-1.8-5.9-2-8-2c-2.85,0-5.7,1.602-9,4.452V121c0,5.1,1.699,7.75,2,10H573z"/>
	<path fill="#4B4B4B" d="M547,131v-5.55c-4.649,4.5-9.352,7.55-14.751,7.55C521,133,513,123.85,513,112
		c0-7.2,2.6-13.398,7.399-17.599C524.899,90.352,530.251,88,537,88c3.15,0,6.15,1.25,9,2v-3c0-6.3-3.25-8-10-8c-4.35,0-9.7,1.6-16,4
		V67c7.5-1.95,14.65-3,19-3c9.149,0,14.849,1.903,18.298,5.953C560.748,74.002,562,80.4,562,90v31c0,4.35,0.7,8.35,1,10H547z
		 M546,103.251c-2.1-0.9-3.852-1.251-6.251-1.251c-2.851,0-5.1,0.8-7.05,2c-2.25,1.5-3.699,4.15-3.699,7c0,4.05,3.699,6,7.449,6
		c5.85,0,9.551-3.6,9.551-9V103.251z"/>
	<path fill="#4B4B4B" d="M463.787,31C490.213,31,503,46.893,503,80.113c0,17.063-1.621,29.337-6,36.887
		c-5.437,9.361-15.655,14-30,14h-31c0.453-2.566,1-7.054,1-14V44c0-7.248-0.547-10.735-1-13H463.787z M485,74.073
		c0-10.117-2.526-16.146-6-20.073c-3.774-4.379-10.229-7-20.347-7h-3.775L455,115h4c17.667,0,26-8.333,26-26V74.073z"/>
</g>
<g id="GitHub">
	<path fill="#AAAAAA" d="M389,125.646V131h-17c0.3-1.65,1-5.35,1-10V42c0-5.85-0.7-9.35-1-11h18c-0.149,1.8-1,5.3-1,11v26.349
		c4.65-2.85,9.351-3.349,13.701-3.349c7.949,0,14.099,2.448,18.599,9.498C425.05,80.648,427,87.3,427,96
		c0,8.85-1.95,17.347-6,23.946C416.2,127.596,409.751,132,401.801,132C396.401,132,392.6,129.546,389,125.646z M389,85v26
		c3.15,3.15,6.85,4,10,4c3.899,0,7.05-1.65,9-6c1.649-3.45,2-8.35,2-13c0-11.25-4.101-16-11-16C395.7,80,392.6,81.7,389,85z"/>
	<path fill="#AAAAAA" d="M313.402,121.5c-3-5.7-4.402-13.351-4.402-22.5V77c0-6.75-0.55-9.6-1-12h18c-0.3,2.25-0.85,4.8-1,12v22
		c0,5.7,1.152,9.901,2.502,12.451c1.5,3.15,4.448,5.549,8.498,5.549c2.85,0,5.55-2.7,9-6V75c0-3.45-1-9.55-1-10h18
		c-0.149,1.65-1,5.35-1,10v46c0,5.85,0.851,8.35,1,10h-17v-5c-4.65,4.05-9.75,6-15,6C322.051,132,317.152,128.55,313.402,121.5z"/>
	<path fill="#AAAAAA" d="M292,70h6v16h-6v34c0,4.65,0.551,8.75,1,11h-20c0.449-2.55,1-6.051,1-11V86h-27l-0.101,35
		c0,5.399,0.65,7.75,1.101,10h-20c0.45-2.4,1-5.35,1-10V41c0-4.65-0.55-7.6-1-10h20c-0.45,2.55-1,5.5-1,10v29h27V41
		c0-6.15-0.551-7.75-1-10h20c-0.449,2.25-1,6.101-1,10V70z"/>
	<path fill="#AAAAAA" d="M203,64h13v16c-1.05,0-4.149-1-6.549-1H203v28c0,6.75,2.25,10,6.601,10c3.149,0,5.85-1.35,8.399-3v15
		c-3.75,1.949-8.1,3-13.35,3c-7.35,0-12.299-2.303-15.148-7.553C187.401,120.547,186,114.4,186,106V79l0,0l0,0h-2
		c-1.35,0-2.9,0.7-5,1V64h8v-4c0-2.85-0.699-6.35-1-8h18c-0.3,1.95-1,5.6-1,8V64z"/>
	<path fill="#AAAAAA" d="M149,41c0-6.149,5.15-11,11-11c5.55,0,10,4.851,10,11c0,6-4.45,11-10,11C154.15,52,149,47,149,41z M151,131
		c0.15-1.949,1-6.2,1-11V74c0-4.65-0.85-8.2-1-10h18c-0.15,1.95-1,5.65-1,10v45.9c0,5.1,0.85,8.85,1,11.1H151z"/>
	<path fill="#AAAAAA" d="M131,123c-1.35,2.399-4.053,4.496-7.502,6.446C119.148,131.695,114.55,133,109,133
		c-24.749,0-38-17.352-38-52c0-32.999,14.851-51,42-51c7.8,0,14.301,2.05,20,7v18c-6.449-5.55-13.102-8-20.152-8
		C98.149,47,91,58.147,91,81.396C91,104.945,97.15,117,109,117c9.75,0,14-6,14-18c0.15-1.2,0-5-1-12h19c-0.45,4.35-1,8.75-1,14v18
		c0,5.55,1,11,1,13c0,0-2,0-3,0L131,123z"/>
</g>
<g id="_x7B_">
	<path id="_x7B__1_" fill="#4183C4" d="M61,165h-5c-18.449,0-27-6.851-27-25l0.025-5l0.026-22.654c0-6.9-1.101-11.896-3.051-15.346
		c-2.55-4.5-7-7-13-7V75c6,0,10.45-2.5,13-7c1.95-3.45,3-9.052,3-15.952V41c0-9.15,1.65-15.95,6-20c4.2-3.75,11.451-6,20.6-6H61v15
		c-6.75,0-11.35,1.05-13,3s-2,7.2-2,15c0,9.45-0.8,16.1-2,20c-1.65,5.7-5.851,9.8-12,14c6.3,4.35,10.401,9.347,12.051,14.896
		C45.25,100.796,46,107.4,46,117c0,0.254,0,17.754,0,18c0.024,7.322,0.403,10.113,2,12c1.65,1.949,6,2,13,2V165z"/>
</g>
<g id="SCRIPT">
	<g>
		<path d="M664,145v16.688c0,1.691-0.184,2.808-0.075,3.312H659c0.108-0.647,0-1.764,0-3.384V145h-2.202
			c-1.368,0-2.402-0.072-2.798,0v-4h15v4c-0.468-0.072-1.332,0-2.664,0H664z"/>
	</g>
	<g>
		<path d="M617,160v5h-5v-24h5.399c2.699,0,5.121,0.653,6.777,2.165c1.656,1.476,1.823,3.478,1.823,5.781
			c0,2.34-0.394,4.499-2.014,6.443c-1.44,1.691-3.471,3.017-5.651,3.995L617,160z M617,145v10c1.391-0.547,2.094-0.953,3.207-2
			c1.23-1.156,1.949-2.644,1.949-4.047c0-1.332-0.618-2.167-1.554-2.959C619.774,145.274,618.224,145,617,145L617,145z"/>
	</g>
	<g>
		<path d="M574,165v-24h5v24H574z"/>
	</g>
	<g>
		<path d="M532,161c-0.036,1.692,0,4,0,4h-5v-24h5c2.7,0,5.608,0.747,7.265,2.259c1.656,1.476,2.735,3.384,2.735,5.688
			c0,2.627-1.021,4.967-3,7.019l1.885,6.336c0.323,0.899,0.684,1.8,1.115,2.699h-5l-2-6C534.46,159.324,532,161,532,161z
			 M532,144.914V156c1.403-0.539,2.514-1.69,3.557-2.807c1.188-1.26,1.765-2.592,1.765-3.995c0-1.332-0.469-2.412-1.404-3.204
			c-0.828-0.72-1.872-1.08-3.096-1.08H532z"/>
	</g>
	<g>
		<path d="M487,152c0,5.796,1.725,8,5,8c2,0,3.964-1,3.964-1l0.036,5c-1.547,0.688-3.096,1-4.212,1c-6.083,0-9.788-4.396-9.788-13
			c0-2.987,0.379-5.696,2-8c1.764-2.556,4.688-4,7-4c1.332,0,2.976,0.184,4.964,1v5c-1.403-0.72-2.884-1-3.964-1
			C489.375,145,487,146.563,487,152z"/>
	</g>
	<g>
		<path d="M436,164v-4c1.85,1,3.48,1.02,4.774,1.02c1.148,0,2.147-0.222,2.96-0.665c0.999-0.557,1.477-1.334,1.518-2.333
			c0.033-0.821-0.074-1.257-0.185-1.591c-0.223-0.554-0.666-1.073-1.333-1.479c-0.664-0.408-1.887-1.186-3.626-2.332
			c-2.96-1.927-4.108-3.702-4.108-6.514c0-4.071,2.406-6.106,7.218-6.106c1.702,0,4.104,0.225,5.771,1v5
			c-1.554-0.999-3.958-2.039-5.698-2.039c-1.813,0-2.702,0.664-2.702,1.995c0,1.001,0.396,1.796,1.581,2.536l3.491,2.201
			c1.591,1.038,2.738,2.147,3.402,3.296c0.632,1.073,0.926,2.332,0.926,3.811c0,2.591-0.926,4.553-2.812,5.849
			c-1.592,1.072-3.271,1.352-6.402,1.352C439.368,165,437.688,164.906,436,164z"/>
	</g>
</g>
<g id="Stylish">
	<g>
		<path fill="#AAAAAA" d="M372,138l6,24l28-8l-25,2L372,138z M413,141l-28,8l25-2l9,18L413,141z"/>
	</g>
</g>
</svg>
