<?xml version="1.0" encoding="utf-8"?>
<!-- Generator: Adobe Illustrator 16.0.3, SVG Export Plug-In . SVG Version: 6.00 Build 0)  -->
<svg version="1.2" baseProfile="tiny" id="Layer_1" xmlns="http://www.w3.org/2000/svg" xmlns:xlink="http://www.w3.org/1999/xlink"
	 x="0px" y="0px" width="740px" height="190px" viewBox="0 0 740 190" xml:space="preserve">
<g>
	<path fill="#AAAAAA" d="M129.197,127.601c-1.35,2.399-3.75,4.499-7.2,6.45c-4.35,2.249-9.299,3.449-14.849,3.449
		c-24.749,0-37.199-17.399-37.199-52.048c0-32.999,14.25-50.848,41.398-50.848c7.8,0,14.549,2.55,20.249,7.5v17.099
		c-6.45-5.55-13.199-8.25-20.249-8.25c-14.699,0-22.049,11.699-22.049,34.948c0,23.549,6,35.399,17.85,35.399
		c9.75,0,14.549-6,14.549-18c0.15-1.199,0-5.1-0.3-11.699h18.299c-0.45,4.35-0.6,9-0.6,14.25v17.398c0,5.551,0.6,10.95,0.6,12.75
		c-0.75,0.15-1.8,0.15-3.15,0L129.197,127.601z"/>
	<path fill="#AAAAAA" d="M150.499,46.604c0-6.149,4.65-11.25,10.5-11.25c5.55,0,10.35,5.1,10.35,11.25c0,6-4.8,11.1-10.35,11.1
		C155.148,57.703,150.499,52.604,150.499,46.604z M152.448,136c0.15-1.949,0.3-5.4,0.3-10.199V79.152c0-4.65-0.15-7.95-0.3-9.75
		h16.949c-0.15,1.95-0.3,5.1-0.3,9.45V124.9c0,5.1,0.15,8.85,0.3,11.1H152.448z"/>
	<path fill="#AAAAAA" d="M201.197,69.403h13.049v14.549c-1.05,0-4.2-0.3-6.6-0.3h-6.45v27.898c0,6.75,2.25,10.05,6.6,10.05
		c3.15,0,5.85-0.899,8.399-2.55v15c-3.75,1.949-8.1,2.999-13.349,2.999c-7.35,0-12.3-2.55-15.149-7.8
		c-2.1-3.899-3.15-10.049-3.15-18.449V83.952h0.15v-0.3l-2.25-0.15c-1.35,0-3,0.15-5.1,0.45V69.403h7.35v-5.85
		c0-2.85-0.15-5.1-0.45-6.75h17.399c-0.3,1.95-0.45,4.05-0.45,6.45V69.403z"/>
	<path fill="#AAAAAA" d="M290.144,74.803h4.95v16.349h-4.95V125.5c0,4.65,0.15,8.25,0.6,10.5h-19.649
		c0.45-2.55,0.6-6.449,0.6-11.399V91.152h-27.299v33.299c0,5.398,0.15,9.299,0.6,11.549h-19.499c0.45-2.4,0.6-5.85,0.6-10.5V46.454
		c0-4.65-0.15-8.1-0.6-10.5h19.499c-0.45,2.55-0.6,6-0.6,10.5v28.349h27.299V48.554c0-6.15-0.15-10.35-0.6-12.6h19.649
		c-0.45,2.25-0.6,5.25-0.6,9.149V74.803z"/>
	<path fill="#AAAAAA" d="M311.296,126.101c-3-5.7-4.5-13.2-4.5-22.349v-20.55c0-6.75-0.15-11.399-0.6-13.799h18
		c-0.3,2.25-0.45,6.899-0.6,14.099l-0.15,20.25c0,5.699,0.6,9.749,1.95,12.299c1.5,3.15,4.199,4.65,8.249,4.65
		c2.851,0,6-1.65,9.45-4.95V78.853c0-3.45-0.601-9-0.601-9.45h17.399c-0.149,1.65-0.3,4.8-0.3,9.45v45.897
		c0,5.85,0.15,9.6,0.3,11.25h-16.349v-5.4c-4.65,4.051-9.45,6-14.7,6C320.896,136.6,315.046,133.15,311.296,126.101z"/>
	<path fill="#AAAAAA" d="M389.444,130.6v5.4h-15.899c0.3-1.65,0.449-4.8,0.449-9.449V47.204c0-5.85-0.149-9.6-0.449-11.25h17.099
		c-0.149,1.8-0.3,5.55-0.3,11.25v26.099c4.65-2.85,9.149-4.35,13.5-4.35c7.949,0,14.099,3.45,18.599,10.5
		c3.75,6.15,5.7,13.5,5.7,22.199c0,8.85-1.95,16.649-6,23.249c-4.8,7.65-11.249,11.55-19.199,11.55
		C397.544,136.45,393.044,134.5,389.444,130.6z M390.344,89.652v25.949c3.15,3.149,6.3,4.649,9.45,4.649
		c3.899,0,6.899-2.1,8.85-6.449c1.649-3.449,2.399-7.5,2.399-12.149c0-11.25-3.45-16.949-10.35-16.949
		C397.394,84.702,393.943,86.352,390.344,89.652z"/>
</g>
<g>
	<path fill="#4B4B4B" d="M464.549,36.954c26.249,0,39.448,16.5,39.448,49.498c0,16.949-2.1,29.099-6.45,36.599
		c-5.399,9.3-15.149,13.949-29.398,13.949H436.8c0.45-2.55,0.6-7.199,0.6-14.1V51.204c0-7.2-0.149-12-0.6-14.25H464.549z
		 M485.397,80.452c0-10.049-1.8-16.949-5.25-20.849c-3.749-4.35-10.649-6.45-20.698-6.45h-3.75v67.497h4.649
		c17.55,0,25.049-6.899,25.049-24.449V80.452z"/>
	<path fill="#4B4B4B" d="M546.599,137v-5.55c-4.649,4.5-9.75,6.75-15.149,6.75c-11.25,0-19.049-8.85-19.049-20.699
		c0-7.2,2.399-12.899,7.199-17.1c4.5-4.05,10.199-6.149,16.949-6.149c3.15,0,6.3,0.45,9.149,1.199v-1.5
		c0-6.3-3.449-9.45-10.199-9.45c-4.35,0-9.6,1.2-15.899,3.6V72.803c7.5-1.95,13.5-3,17.85-3c9.149,0,15.6,2.1,19.049,6.15
		c3.45,4.05,5.25,10.799,5.25,20.399v31.499c0,4.35,0.15,7.499,0.45,9.149H546.599z M545.698,109.251
		c-2.1-0.899-4.35-1.35-6.749-1.35c-2.851,0-5.1,0.6-7.05,1.8c-2.25,1.5-3.45,3.6-3.45,6.449c0,4.051,3.45,6.75,7.2,6.75
		c5.85,0,10.049-4.199,10.049-9.6V109.251z"/>
	<path fill="#4B4B4B" d="M574.647,137c0.3-1.95,0.45-5.399,0.45-10.199V80.152c0-4.65-0.15-7.95-0.45-9.75h16.35v4.5
		c3-3.45,6.6-5.25,10.8-5.25c1.8,0,3.75,0.45,5.85,1.2v16.949c-2.55-1.8-4.95-2.7-7.05-2.7c-2.85,0-5.85,1.5-9.149,4.35V125.9
		c0,5.1,0.149,8.85,0.45,11.1H574.647z"/>
	<path fill="#4B4B4B" d="M617.697,137c0.3-1.95,0.45-5.399,0.45-10.199V46.704c0-4.65-0.15-7.95-0.45-9.75h17.1
		c-0.3,1.95-0.45,5.1-0.45,9.45v42.148l10.199-13.499c1.5-1.95,2.55-3.6,3.3-5.25h19.35l-20.1,25.799L669.146,137h-17.55
		c-0.449-1.5-1.5-4.05-3.449-7.649l-13.8-26.399V125.9c0,5.1,0.15,8.85,0.45,11.1H617.697z"/>
</g>
<g>
	<path fill="#4B4B4B" d="M437.756,169.353v-4.607c1.8,0.972,3.348,1.439,4.607,1.439c1.116,0,2.088-0.216,2.88-0.648
		c0.972-0.539,1.476-1.296,1.476-2.268c0-0.684-0.072-1.224-0.18-1.548c-0.216-0.54-0.648-1.044-1.296-1.439
		c-0.648-0.396-1.836-1.152-3.527-2.268c-2.88-1.872-3.996-3.6-3.996-6.335c0-3.96,2.34-5.939,7.02-5.939
		c1.655,0,3.275,0.359,4.896,1.115v4.176c-1.512-0.972-3.132-1.439-4.824-1.439c-1.764,0-2.627,0.647-2.627,1.943
		c0,0.972,0.576,1.836,1.728,2.556l3.203,2.052c1.548,1.008,2.664,2.088,3.313,3.204c0.611,1.044,0.899,2.268,0.899,3.707
		c0,2.52-0.899,4.428-2.735,5.688c-1.548,1.044-3.636,1.584-6.228,1.584C440.995,170.324,439.447,170,437.756,169.353z"/>
	<path fill="#4B4B4B" d="M487.795,152.435c-0.828,1.548-1.224,3.203-1.224,4.967c0,5.796,1.619,8.675,4.896,8.675
		c0.756,0,1.439-0.107,1.979-0.288l1.764-0.863l0.036,4.571c-1.692,0.54-3.096,0.792-4.212,0.792c-6.083,0-9.106-4.283-9.106-12.887
		c0-2.987,0.792-5.615,2.411-7.919c1.764-2.556,3.996-3.815,6.695-3.815c1.332,0,2.7,0.288,4.176,0.828v4.319
		c-1.404-0.72-2.664-1.08-3.743-1.08C489.954,149.734,488.73,150.635,487.795,152.435z"/>
	<path fill="#4B4B4B" d="M531.606,165.356l-0.036,1.26c-0.036,1.692,0.036,2.808,0.18,3.384h-4.715
		c0.107-1.008,0.144-2.124,0.144-3.384V149.41c0-1.691-0.036-2.808-0.144-3.419h5.435c2.7,0,4.859,0.756,6.516,2.268
		c1.656,1.476,2.483,3.384,2.483,5.688c0,2.627-1.008,4.967-2.987,7.019l2.124,6.336c0.323,0.899,0.684,1.8,1.115,2.699h-4.823
		l-1.836-6.443c-0.54,0.324-1.079,0.576-1.691,0.828L531.606,165.356z M531.57,149.914l0.036,10.763
		c1.403-0.539,2.628-1.367,3.671-2.483c1.188-1.26,1.765-2.592,1.765-3.995c0-1.332-0.469-2.412-1.404-3.204
		c-0.828-0.72-1.872-1.08-3.096-1.08H531.57z"/>
	<path fill="#4B4B4B" d="M572.971,170c0.108-0.612,0.145-1.764,0.145-3.384v-17.241c0-1.765-0.036-2.916-0.145-3.384h4.896
		c-0.107,0.54-0.144,1.655-0.144,3.312v17.386c0,1.62,0.036,2.735,0.144,3.312H572.971z"/>
	<path fill="#4B4B4B" d="M615.054,165.356v1.26c-0.036,1.692,0.036,2.808,0.144,3.384h-4.679c0.107-1.008,0.144-2.124,0.144-3.384
		V149.41c0-1.691-0.036-2.808-0.144-3.419h5.399c2.699,0,4.895,0.756,6.551,2.268c1.656,1.476,2.483,3.384,2.483,5.688
		c0,2.34-0.827,4.499-2.447,6.443c-1.44,1.691-3.312,3.023-5.651,3.995L615.054,165.356z M615.054,149.914v10.763
		c1.403-0.539,2.628-1.367,3.672-2.483c1.188-1.26,1.8-2.592,1.8-3.995c0-1.332-0.469-2.412-1.404-3.204
		c-0.828-0.72-1.872-1.08-3.096-1.08H615.054z"/>
	<path fill="#4B4B4B" d="M664.625,149.914v16.774c0,1.691,0.036,2.808,0.145,3.312h-4.716c0.108-0.647,0.145-1.764,0.145-3.384
		v-16.702h-2.556c-1.368,0-2.269,0.036-2.664,0.108v-4.031h14.866v4.031c-0.468-0.072-1.332-0.108-2.664-0.108H664.625z"/>
</g>
<g id="Rectangle_1_copy_xA0_Clipping_Path">
	<path fill="#AAAAAA" d="M374,143l6,24l28-8l-25,2L374,143z M415,146l-28,8l25-2l9,18L415,146z"/>
</g>
<g id="_x7D__xA0_Clipping_Path">
	<path fill="#FF6262" d="M715,73c-1.95-3.45-3-9.101-3-16V46c0-9.149-1.65-15.95-6-20c-4.2-3.75-11.101-5.746-20.25-5.746L680,20v15
		c6.75,0,11.3,1.004,12.949,2.953C694.6,39.903,695,44.2,695,52c0,9.449,0.8,17.101,2,21c1.65,5.7,5.999,10.252,12.148,14.451
		C702.849,91.802,698.65,96.45,697,102c-1.113,3.618-1.841,9.495-1.983,17.969c-0.006,0.35-0.013,1.063-0.013,1.063
		S695,136.673,695,137c0,7.8-0.4,13-2.051,14.949C691.3,153.899,686.75,155,680,155v15h6c18.449,0,26-7.851,26-26v-23
		c0,0,0-0.78,0-1.125c0-1.117,0-1.875,0-1.875c0-6.899,1.05-12.55,3-16c2.55-4.5,7.851-6.7,14-7V80C722.851,79.7,717.55,77.5,715,73
		z"/>
</g>
<g id="_x7B__xA0_Clipping_Path">
	<path fill="#4183C4" d="M41.449,72.603C42.648,68.702,43,62.449,43,53c0-7.8,0.998-13.097,2.648-15.047
		C47.299,36.004,52.25,35,59,35V20h-6c-9.149,0-15.901,2.204-20.102,5.954C28.549,30.004,26,36.851,26,46v11
		c0,6.899-0.451,12.452-2.4,15.902C21.049,77.402,16.15,79.7,10,80v15c6.15,0.3,11.45,2.5,14,7c1.949,3.45,2,9.101,2,16v26
		c0,18.149,8.551,26,27,26h6v-15c-6.75,0-11.35-1.05-13-3s-3-7.2-3-15c0-0.328,0-16.975,0-16.975s0.158-14.259-1-18.025
		c-1.65-5.55-6.102-10.198-12.4-14.549C35.748,83.252,39.799,78.302,41.449,72.603z"/>
</g>
</svg>
