<?xml version="1.0" encoding="utf-8"?>
<!-- Generator: Adobe Illustrator 16.0.3, SVG Export Plug-In . SVG Version: 6.00 Build 0)  -->
<!DOCTYPE svg PUBLIC "-//W3C//DTD SVG 1.1//EN" "http://www.w3.org/Graphics/SVG/1.1/DTD/svg11.dtd">
<svg version="1.1" id="Layer_2" xmlns="http://www.w3.org/2000/svg" xmlns:xlink="http://www.w3.org/1999/xlink" x="0px" y="0px"
	 width="740px" height="180px" viewBox="0 0 740 180" enable-background="new 0 0 740 180" xml:space="preserve">
<g id="_x7D__2_">
	<path fill="#FF6262" d="M679.5,13.5h5.402c9.149,0,16.398,2.25,20.598,6c4.35,4.05,6,9.85,6,19v12c0,6.9,0.05,10.55,2,14
		c2.55,4.5,8,9,14,9v15c-6,0-10.45,2.5-13,7c-1.95,3.449-3.049,9.1-3.049,16l0.049,21v6c0,18.149-8.148,26-26.598,26h-5.4l-0.002-16
		c6.998,0,11.351-1.051,13-3c1.57-1.856,1.963-5.914,1.997-13c0.002-0.359,0.003-16.477,0.003-16.854c0-9.6,0.801-16.35,2-20.25
		c1.65-5.55,5.7-10.547,12-14.896c-6.149-4.199-10.398-8.953-12.049-14.652c-1.199-3.9-1.951-10.898-1.951-20.348
		c0-7.8-0.35-12.051-2-14c-1.649-1.949-6.25-3-13-3V13.5z"/>
</g>
<g id="Script">
	<path fill="#4B4B4B" d="M664.5,144.5v16.688c0,1.691-0.184,2.808-0.075,3.312H659.5c0.108-0.647,0-1.764,0-3.384V144.5h-2.202
		c-1.368,0-2.402-0.072-2.798,0v-4h15v4c-0.468-0.072-1.332,0-2.664,0H664.5z"/>
	<path fill="#4B4B4B" d="M617.5,159.5v5h-5v-24h5.399c2.699,0,5.121,0.653,6.777,2.165c1.656,1.476,1.823,3.478,1.823,5.781
		c0,2.34-0.394,4.499-2.014,6.443c-1.44,1.691-3.471,3.017-5.651,3.995L617.5,159.5z M617.5,144.5v10
		c1.391-0.547,2.094-0.953,3.207-2c1.23-1.156,1.949-2.644,1.949-4.047c0-1.332-0.618-2.167-1.554-2.959
		C620.275,144.774,618.724,144.5,617.5,144.5L617.5,144.5z"/>
	<path fill="#4B4B4B" d="M574.5,164.5v-24h5v24H574.5z"/>
	<path fill="#4B4B4B" d="M532.5,160.5c-0.036,1.692,0,4,0,4h-5v-24h5c2.7,0,5.608,0.747,7.265,2.259
		c1.656,1.476,2.735,3.384,2.735,5.688c0,2.627-1.021,4.967-3,7.019l1.885,6.336c0.323,0.899,0.684,1.8,1.115,2.699h-5l-2-6
		C534.96,158.824,532.5,160.5,532.5,160.5z M532.5,144.414V155.5c1.403-0.539,2.514-1.69,3.557-2.807
		c1.188-1.26,1.765-2.592,1.765-3.995c0-1.332-0.469-2.412-1.404-3.204c-0.828-0.72-1.872-1.08-3.096-1.08H532.5z"/>
	<path fill="#4B4B4B" d="M487.5,151.5c0,5.796,1.725,8,5,8c2,0,3.964-1,3.964-1l0.036,5c-1.547,0.688-3.096,1-4.212,1
		c-6.083,0-9.788-4.396-9.788-13c0-2.987,0.379-5.696,2-8c1.764-2.556,4.688-4,7-4c1.332,0,2.976,0.184,4.964,1v5
		c-1.403-0.72-2.884-1-3.964-1C489.875,144.5,487.5,146.063,487.5,151.5z"/>
	<path fill="#4B4B4B" d="M436.5,163.5v-4c1.85,1,3.48,1.02,4.774,1.02c1.148,0,2.147-0.222,2.96-0.665
		c0.999-0.557,1.477-1.334,1.518-2.333c0.033-0.821-0.074-1.257-0.185-1.591c-0.223-0.554-0.666-1.073-1.333-1.479
		c-0.664-0.408-1.887-1.186-3.626-2.332c-2.96-1.927-4.108-3.702-4.108-6.514c0-4.071,2.406-6.106,7.218-6.106
		c1.702,0,4.104,0.225,5.771,1v5c-1.554-0.999-3.958-2.039-5.698-2.039c-1.813,0-2.702,0.664-2.702,1.995
		c0,1.001,0.396,1.796,1.581,2.536l3.491,2.201c1.591,1.038,2.738,2.147,3.402,3.296c0.632,1.073,0.926,2.332,0.926,3.811
		c0,2.591-0.926,4.553-2.812,5.849c-1.592,1.072-3.271,1.352-6.402,1.352C439.868,164.5,438.188,164.406,436.5,163.5z"/>
</g>
<g id="Stylish">
	<path id="Stylish_1_" fill="#AAAAAA" d="M372.5,137.5l6,24l28-8l-25,2L372.5,137.5z M413.5,140.5l-28,8l25-2l9,18L413.5,140.5z"/>
</g>
<g id="Dark_1_">
	<path fill="#4B4B4B" d="M617.5,130.5c0.3-1.949,1-6.2,1-11V40.203c0-4.649-0.7-7.903-1-9.703h18c-0.3,1.949-1,5.054-1,9.404
		L634.499,82.5L644.5,68.553c1.5-1.95,2.25-3.402,3-5.053h20l-20,26l22,41h-18c-0.449-1.5-1.252-4.05-3.201-7.65l-13.8-26.398
		L634.5,119.4c0,5.1,0.7,8.85,1,11.1H617.5z"/>
	<path fill="#4B4B4B" d="M573.5,130.5c0.3-1.949,1-5.4,1-10.199V73.652c0-4.65-0.7-8.353-1-10.152h17v5c3-3.449,7.8-6,12-6
		c1.8,0,2.799,0.25,4.898,1l0.102,17c-2.55-1.8-5.9-2-8-2c-2.85,0-5.7,1.602-9,4.452V120.5c0,5.1,1.699,7.75,2,10H573.5z"/>
	<path fill="#4B4B4B" d="M547.5,130.5v-5.55c-4.649,4.5-9.352,7.55-14.751,7.55c-11.249,0-19.249-9.15-19.249-21
		c0-7.199,2.6-13.398,7.399-17.599c4.5-4.05,9.852-6.401,16.601-6.401c3.15,0,6.15,1.25,9,2v-3c0-6.3-3.25-8-10-8
		c-4.35,0-9.7,1.6-16,4v-16c7.5-1.95,14.65-3,19-3c9.149,0,14.849,1.902,18.298,5.953c3.45,4.049,4.702,10.447,4.702,20.047v31
		c0,4.35,0.7,8.35,1,10H547.5z M546.5,102.751c-2.1-0.899-3.852-1.251-6.251-1.251c-2.851,0-5.1,0.8-7.05,2
		c-2.25,1.5-3.699,4.15-3.699,7c0,4.05,3.699,6,7.449,6c5.85,0,9.551-3.6,9.551-9V102.751z"/>
	<path fill="#4B4B4B" d="M464.287,30.5c26.426,0,39.213,15.893,39.213,49.113c0,17.063-1.621,29.336-6,36.887
		c-5.437,9.361-15.655,14-30,14h-31c0.453-2.566,1-7.054,1-14v-73c0-7.248-0.547-10.734-1-13H464.287z M485.5,73.572
		c0-10.117-2.526-16.146-6-20.072c-3.774-4.379-10.229-7-20.347-7h-3.775l0.122,68h4c17.667,0,26-8.333,26-26V73.572z"/>
</g>
<g id="GutHub">
	<path fill="#AAAAAA" d="M389.5,125.146v5.354h-17c0.3-1.65,1-5.35,1-10v-79c0-5.85-0.7-9.35-1-11h18c-0.149,1.8-1,5.301-1,11
		v26.349c4.65-2.851,9.351-3.349,13.701-3.349c7.949,0,14.099,2.448,18.599,9.498c3.75,6.15,5.7,12.803,5.7,21.502
		c0,8.85-1.95,17.347-6,23.946c-4.8,7.649-11.249,12.054-19.199,12.054C396.902,131.5,393.1,129.046,389.5,125.146z M389.5,84.5v26
		c3.15,3.15,6.85,4,10,4c3.899,0,7.05-1.65,9-6c1.649-3.449,2-8.35,2-13c0-11.25-4.101-16-11-16C396.2,79.5,393.1,81.2,389.5,84.5z"
		/>
	<path fill="#AAAAAA" d="M313.903,121c-3-5.699-4.402-13.351-4.402-22.5v-22c0-6.75-0.55-9.6-1-12h18c-0.3,2.25-0.85,4.801-1,12v22
		c0,5.699,1.152,9.9,2.502,12.451c1.5,3.149,4.448,5.549,8.498,5.549c2.85,0,5.55-2.7,9-6v-36c0-3.45-1-9.551-1-10h18
		c-0.149,1.65-1,5.35-1,10v46c0,5.85,0.851,8.35,1,10h-17v-5c-4.65,4.05-9.75,6-15,6C322.551,131.5,317.653,128.05,313.903,121z"/>
	<path fill="#AAAAAA" d="M292.5,69.5h6v16h-6v34c0,4.65,0.551,8.75,1,11h-20c0.449-2.55,1-6.051,1-11v-34h-27l-0.101,35
		c0,5.399,0.65,7.75,1.101,10h-20c0.45-2.4,1-5.35,1-10v-80c0-4.65-0.55-7.6-1-10h20c-0.45,2.55-1,5.5-1,10v29h27v-29
		c0-6.15-0.551-7.75-1-10h20c-0.449,2.25-1,6.101-1,10V69.5z"/>
	<path fill="#AAAAAA" d="M203.5,63.5h13v16c-1.05,0-4.149-1-6.549-1H203.5v28c0,6.75,2.25,10,6.601,10c3.149,0,5.85-1.35,8.399-3v15
		c-3.75,1.949-8.1,3-13.35,3c-7.35,0-12.299-2.303-15.148-7.553c-2.101-3.9-3.502-10.047-3.502-18.447v-27l0,0l0,0h-2
		c-1.35,0-2.9,0.7-5,1v-16h8v-4c0-2.85-0.699-6.35-1-8h18c-0.3,1.949-1,5.6-1,8V63.5z"/>
	<path fill="#AAAAAA" d="M149.5,40.5c0-6.149,5.15-11,11-11c5.55,0,10,4.851,10,11c0,6-4.45,11-10,11
		C154.651,51.5,149.5,46.5,149.5,40.5z M151.5,130.5c0.15-1.949,1-6.2,1-11v-46c0-4.65-0.85-8.2-1-10h18c-0.15,1.949-1,5.65-1,10
		v45.9c0,5.1,0.85,8.85,1,11.1H151.5z"/>
	<path fill="#AAAAAA" d="M131.5,122.5c-1.35,2.399-4.053,4.496-7.502,6.446c-4.35,2.249-8.948,3.554-14.498,3.554
		c-24.749,0-38-17.352-38-52c0-32.998,14.852-51,42-51c7.8,0,14.301,2.05,20,7v18c-6.449-5.55-13.102-8-20.152-8
		C98.649,46.5,91.5,57.646,91.5,80.896c0,23.549,6.15,35.604,18,35.604c9.75,0,14-6,14-18c0.15-1.199,0-5-1-12h19
		c-0.45,4.35-1,8.75-1,14v18c0,5.55,1,11,1,13c0,0-2,0-3,0L131.5,122.5z"/>
</g>
<g id="_x7B__2_">
	<path fill="#4183C4" d="M61.5,164.5h-5c-18.449,0-27-6.851-27-25l0.025-5l0.026-22.654c0-6.899-1.101-11.896-3.051-15.346
		c-2.55-4.5-7-7-13-7v-15c6,0,10.45-2.5,13-7c1.95-3.45,3-9.052,3-15.951V40.5c0-9.15,1.65-15.95,6-20c4.2-3.75,11.451-6,20.6-6h5.4
		v15c-6.75,0-11.35,1.051-13,3s-2,7.2-2,15c0,9.449-0.801,16.1-2,20c-1.65,5.699-5.851,9.801-12,14
		c6.3,4.35,10.4,9.347,12.051,14.896c1.199,3.9,1.949,10.504,1.949,20.104c0,0.254,0,17.754,0,18c0.024,7.322,0.404,10.113,2,12
		c1.65,1.949,6,2,13,2V164.5z"/>
</g>
</svg>
