<svg xmlns="http://www.w3.org/2000/svg" width="740" height="160" viewBox="0 0 740 160">
  <path fill="#4183C4" d="M61 148h-5c-18.449 0-27-6.851-27-25l.051-11.654c0-6.9-1.101-11.896-3.051-15.346-2.55-4.5-7-7-13-7V74c6 0 10.45-2.5 13-7 1.95-3.45 3-9.052 3-15.952V40c0-9.15 1.65-15.95 6-20 4.2-3.75 11.451-6 20.6-6H61v15c-6.75 0-11.35 1.05-13 3s-2 7.2-2 15c0 9.45-.8 16.1-2 20-1.65 5.7-5.851 9.8-12 14 6.3 4.35 10.401 9.347 12.051 14.896C45.25 99.796 46 106.4 46 116c0 7.799.35 12.05 2 14 1.65 1.95 6 2 13 2v16z"/>
  <path d="M389 124.646V130h-17c.3-1.65 1-5.35 1-10V41c0-5.85-.7-9.35-1-11h18c-.149 1.8-1 5.3-1 11v26.349c4.65-2.85 9.351-3.349 13.701-3.349 7.949 0 14.099 2.448 18.599 9.498C425.05 79.648 427 86.3 427 95c0 8.85-1.95 17.347-6 23.946-4.8 7.65-11.249 12.054-19.199 12.054-5.4 0-9.201-2.454-12.801-6.354zM389 84v26c3.15 3.15 6.85 4 10 4 3.899 0 7.05-1.65 9-6 1.649-3.45 2-8.35 2-13 0-11.25-4.101-16-11-16-3.3 0-6.4 1.7-10 5zm-75.598 36.5c-3-5.7-4.402-13.351-4.402-22.5V76c0-6.75-.55-9.6-1-12h18c-.3 2.25-.85 4.8-1 12v22c0 5.7 1.152 9.901 2.502 12.451 1.5 3.15 4.448 5.549 8.498 5.549 2.85 0 5.55-2.7 9-6V74c0-3.45-1-9.55-1-10h18c-.149 1.65-1 5.35-1 10v46c0 5.85.851 8.35 1 10h-17v-5c-4.65 4.05-9.75 6-15 6-7.949 0-12.848-3.45-16.598-10.5zM292 69h6v16h-6v34c0 4.65.551 8.75 1 11h-20c.449-2.55 1-6.05 1-11V85h-27l-.101 35c0 5.399.65 7.75 1.101 10h-20c.45-2.4 1-5.35 1-10V40c0-4.65-.55-7.6-1-10h20c-.45 2.55-1 5.5-1 10v29h27V40c0-6.15-.551-7.75-1-10h20c-.449 2.25-1 6.101-1 10v29zm-89-6h13v16c-1.05 0-4.149-1-6.549-1H203v28c0 6.75 2.25 10 6.601 10 3.149 0 5.85-1.35 8.399-3v15c-3.75 1.95-8.1 3-13.35 3-7.35 0-12.299-2.303-15.148-7.553C187.401 119.547 186 113.4 186 105V78h-2c-1.35 0-2.9.7-5 1V63h8v-4c0-2.85-.699-6.35-1-8h18c-.3 1.95-1 5.6-1 8v4zm-54-23c0-6.149 5.15-11 11-11 5.55 0 10 4.851 10 11 0 6-4.45 11-10 11-5.85 0-11-5-11-11zm2 90c.15-1.95 1-6.2 1-11V73c0-4.65-.85-8.2-1-10h18c-.15 1.95-1 5.65-1 10v45.9c0 5.1.85 8.85 1 11.1h-18zm-20-8c-1.35 2.399-4.053 4.496-7.502 6.446-4.35 2.25-8.948 3.554-14.498 3.554-24.749 0-38-17.352-38-52 0-32.999 14.852-51 42-51 7.8 0 14.301 2.05 20 7v18c-6.449-5.55-13.102-8-20.152-8C98.148 46 91 57.147 91 80.396 91 103.945 97.15 116 109 116c9.75 0 14-6 14-18 .15-1.2 0-5-1-12h19c-.45 4.35-1 8.75-1 14v18c0 5.55 1 11 1 13h-3l-7-9z" fill="#AAA"/>
  <path d="M617 130c.3-1.95 1-6.2 1-11V39.704c0-4.65-.7-7.904-1-9.704h18c-.3 1.95-1 5.054-1 9.404L633.999 82 644 68.053c1.5-1.95 2.25-3.403 3-5.053h20l-20 26 22 41h-18c-.449-1.5-1.252-4.05-3.201-7.65l-13.8-26.399L634 118.9c0 5.1.7 8.85 1 11.1h-18zm-44 0c.3-1.95 1-5.4 1-10.2V73.152c0-4.65-.7-8.353-1-10.152h17v5c3-3.45 7.8-6 12-6 1.8 0 2.799.25 4.898 1L607 80c-2.55-1.8-5.9-2-8-2-2.85 0-5.7 1.602-9 4.452V120c0 5.1 1.699 7.75 2 10h-19zm-26 0v-5.55c-4.649 4.5-9.352 7.55-14.751 7.55C521 132 513 122.849 513 111c0-7.2 2.6-13.398 7.399-17.599C524.899 89.352 530.251 87 537 87c3.15 0 6.15 1.25 9 2v-3c0-6.3-3.25-8-10-8-4.35 0-9.7 1.6-16 4V66c7.5-1.95 14.65-3 19-3 9.149 0 14.849 1.903 18.298 5.953C560.748 73.002 562 79.4 562 89v31c0 4.35.7 8.35 1 10h-16zm-1-27.749c-2.1-.9-3.852-1.251-6.251-1.251-2.851 0-5.1.8-7.05 2-2.25 1.5-3.699 4.15-3.699 7 0 4.05 3.699 6 7.449 6 5.85 0 9.551-3.6 9.551-9v-4.749zM463.787 30C490.213 30 503 45.893 503 79.113c0 17.063-1.621 29.337-6 36.887-5.437 9.362-15.655 14-30 14h-31c.453-2.567 1-7.054 1-14V43c0-7.248-.547-10.735-1-13h27.787zM485 73.073c0-10.117-2.526-16.146-6-20.073-3.774-4.379-10.229-7-20.347-7h-3.775l.122 68h4c17.667 0 26-8.333 26-26V73.073z" fill="#4B4B4B"/>
  <path fill="#FF6262" d="M679 13h5.402c9.149 0 16.398 2.25 20.598 6 4.35 4.05 6 9.85 6 19v12c0 6.9.05 10.55 2 14 2.55 4.5 8 9 14 9v15c-6 0-10.45 2.5-13 7-1.95 3.45-3.049 9.1-3.049 16l.049 11c0 18.149-8.148 26-26.598 26h-5.4L679 132c6.998 0 11.351-1.05 13-3 1.65-1.95 2-6.055 2-13.854 0-9.6.801-16.35 2-20.25 1.65-5.55 5.7-10.547 12-14.896-6.149-4.2-10.398-8.953-12.049-14.652C694.752 61.448 694 54.45 694 45c0-7.8-.35-12.05-2-14-1.649-1.95-6.25-3-13-3V13z"/>
</svg>
