<?xml version="1.0" encoding="utf-8"?>
<!-- Generator: Adobe Illustrator 16.0.3, SVG Export Plug-In . SVG Version: 6.00 Build 0)  -->
<!DOCTYPE svg PUBLIC "-//W3C//DTD SVG 1.1//EN" "http://www.w3.org/Graphics/SVG/1.1/DTD/svg11.dtd">
<svg version="1.1" id="GitHubDark" xmlns="http://www.w3.org/2000/svg" xmlns:xlink="http://www.w3.org/1999/xlink" x="0px" y="0px"
	 width="740px" height="160px" viewBox="0 0 740 160" enable-background="new 0 0 740 160" xml:space="preserve">
<g id="_x7B_">
	<path fill="#4183C4" d="M61,148h-5c-18.449,0-27-6.851-27-25l0.051-11.654c0-6.9-1.101-11.896-3.051-15.346c-2.55-4.5-7-7-13-7V74
		c6,0,10.45-2.5,13-7c1.95-3.45,3-9.052,3-15.952V40c0-9.15,1.65-15.95,6-20c4.2-3.75,11.451-6,20.6-6H61v15
		c-6.75,0-11.35,1.05-13,3s-2,7.2-2,15c0,9.45-0.8,16.1-2,20c-1.65,5.7-5.851,9.8-12,14c6.3,4.35,10.401,9.347,12.051,14.896
		C45.25,99.796,46,106.4,46,116c0,7.799,0.35,12.05,2,14c1.65,1.95,6,2,13,2V148z"/>
</g>
<g id="GitHub">
	<path fill="#AAAAAA" d="M389,124.646V130h-17c0.3-1.65,1-5.35,1-10V41c0-5.85-0.7-9.35-1-11h18c-0.149,1.8-1,5.3-1,11v26.349
		c4.65-2.85,9.351-3.349,13.701-3.349c7.949,0,14.099,2.448,18.599,9.498C425.05,79.648,427,86.3,427,95
		c0,8.85-1.95,17.347-6,23.946c-4.8,7.65-11.249,12.054-19.199,12.054C396.401,131,392.6,128.546,389,124.646z M389,84v26
		c3.15,3.15,6.85,4,10,4c3.899,0,7.05-1.65,9-6c1.649-3.45,2-8.35,2-13c0-11.25-4.101-16-11-16C395.7,79,392.6,80.7,389,84z"/>
	<path fill="#AAAAAA" d="M313.402,120.5c-3-5.7-4.402-13.351-4.402-22.5V76c0-6.75-0.55-9.6-1-12h18c-0.3,2.25-0.85,4.8-1,12v22
		c0,5.7,1.152,9.901,2.502,12.451c1.5,3.15,4.448,5.549,8.498,5.549c2.85,0,5.55-2.7,9-6V74c0-3.45-1-9.55-1-10h18
		c-0.149,1.65-1,5.35-1,10v46c0,5.85,0.851,8.35,1,10h-17v-5c-4.65,4.05-9.75,6-15,6C322.051,131,317.152,127.55,313.402,120.5z"/>
	<path fill="#AAAAAA" d="M292,69h6v16h-6v34c0,4.65,0.551,8.75,1,11h-20c0.449-2.55,1-6.05,1-11V85h-27l-0.101,35
		c0,5.399,0.65,7.75,1.101,10h-20c0.45-2.4,1-5.35,1-10V40c0-4.65-0.55-7.6-1-10h20c-0.45,2.55-1,5.5-1,10v29h27V40
		c0-6.15-0.551-7.75-1-10h20c-0.449,2.25-1,6.101-1,10V69z"/>
	<path fill="#AAAAAA" d="M203,63h13v16c-1.05,0-4.149-1-6.549-1H203v28c0,6.75,2.25,10,6.601,10c3.149,0,5.85-1.35,8.399-3v15
		c-3.75,1.95-8.1,3-13.35,3c-7.35,0-12.299-2.303-15.148-7.553C187.401,119.547,186,113.4,186,105V78l0,0l0,0h-2
		c-1.35,0-2.9,0.7-5,1V63h8v-4c0-2.85-0.699-6.35-1-8h18c-0.3,1.95-1,5.6-1,8V63z"/>
	<path fill="#AAAAAA" d="M149,40c0-6.149,5.15-11,11-11c5.55,0,10,4.851,10,11c0,6-4.45,11-10,11C154.15,51,149,46,149,40z M151,130
		c0.15-1.95,1-6.2,1-11V73c0-4.65-0.85-8.2-1-10h18c-0.15,1.95-1,5.65-1,10v45.9c0,5.1,0.85,8.85,1,11.1H151z"/>
	<path fill="#AAAAAA" d="M131,122c-1.35,2.399-4.053,4.496-7.502,6.446C119.148,130.696,114.55,132,109,132
		c-24.749,0-38-17.352-38-52c0-32.999,14.852-51,42-51c7.8,0,14.301,2.05,20,7v18c-6.449-5.55-13.102-8-20.152-8
		C98.148,46,91,57.147,91,80.396C91,103.945,97.15,116,109,116c9.75,0,14-6,14-18c0.15-1.2,0-5-1-12h19c-0.45,4.35-1,8.75-1,14v18
		c0,5.55,1,11,1,13c0,0-2,0-3,0L131,122z"/>
</g>
<g id="Dark">
	<path fill="#4B4B4B" d="M617,130c0.3-1.95,1-6.2,1-11V39.704c0-4.65-0.7-7.904-1-9.704h18c-0.3,1.95-1,5.054-1,9.404L633.999,82
		L644,68.053c1.5-1.95,2.25-3.403,3-5.053h20l-20,26l22,41h-18c-0.449-1.5-1.252-4.05-3.201-7.65l-13.8-26.399L634,118.9
		c0,5.1,0.7,8.85,1,11.1H617z"/>
	<path fill="#4B4B4B" d="M573,130c0.3-1.95,1-5.4,1-10.2V73.152c0-4.65-0.7-8.353-1-10.152h17v5c3-3.45,7.8-6,12-6
		c1.8,0,2.799,0.25,4.898,1L607,80c-2.55-1.8-5.9-2-8-2c-2.85,0-5.7,1.602-9,4.452V120c0,5.1,1.699,7.75,2,10H573z"/>
	<path fill="#4B4B4B" d="M547,130v-5.55c-4.649,4.5-9.352,7.55-14.751,7.55C521,132,513,122.849,513,111
		c0-7.2,2.6-13.398,7.399-17.599C524.899,89.352,530.251,87,537,87c3.15,0,6.15,1.25,9,2v-3c0-6.3-3.25-8-10-8c-4.35,0-9.7,1.6-16,4
		V66c7.5-1.95,14.65-3,19-3c9.149,0,14.849,1.903,18.298,5.953C560.748,73.002,562,79.4,562,89v31c0,4.35,0.7,8.35,1,10H547z
		 M546,102.251c-2.1-0.9-3.852-1.251-6.251-1.251c-2.851,0-5.1,0.8-7.05,2c-2.25,1.5-3.699,4.15-3.699,7c0,4.05,3.699,6,7.449,6
		c5.85,0,9.551-3.6,9.551-9V102.251z"/>
	<path fill="#4B4B4B" d="M463.787,30C490.213,30,503,45.893,503,79.113c0,17.063-1.621,29.337-6,36.887
		c-5.437,9.362-15.655,14-30,14h-31c0.453-2.567,1-7.054,1-14V43c0-7.248-0.547-10.735-1-13H463.787z M485,73.073
		c0-10.117-2.526-16.146-6-20.073c-3.774-4.379-10.229-7-20.347-7h-3.775L455,114h4c17.667,0,26-8.333,26-26V73.073z"/>
</g>
<g id="_x7D_">
	<path id="_x7D__1_" fill="#FF6262" d="M679,13h5.402c9.149,0,16.398,2.25,20.598,6c4.35,4.05,6,9.85,6,19v12c0,6.9,0.05,10.55,2,14
		c2.55,4.5,8,9,14,9v15c-6,0-10.45,2.5-13,7c-1.95,3.45-3.049,9.1-3.049,16L711,122c0,18.149-8.148,26-26.598,26h-5.4L679,132
		c6.998,0,11.351-1.05,13-3c1.65-1.95,2-6.055,2-13.854c0-9.6,0.801-16.35,2-20.25c1.65-5.55,5.7-10.547,12-14.896
		c-6.149-4.2-10.398-8.953-12.049-14.652C694.752,61.448,694,54.45,694,45c0-7.8-0.35-12.05-2-14c-1.649-1.95-6.25-3-13-3V13z"/>
</g>
</svg>
