<svg xmlns="http://www.w3.org/2000/svg" width="740" height="180" viewBox="0 0 740 180">
  <path fill="#FF6262" d="M679.5 13.5h5.402c9.149 0 16.398 2.25 20.598 6 4.35 4.05 6 9.85 6 19v12c0 6.9.05 10.55 2 14 2.55 4.5 8 9 14 9v15c-6 0-10.45 2.5-13 7-1.95 3.449-3.049 9.1-3.049 16l.049 21v6c0 18.149-8.148 26-26.598 26h-5.4l-.002-16c6.998 0 11.351-1.051 13-3 1.57-1.856 1.963-5.914 1.997-13 .002-.359.003-16.477.003-16.854 0-9.6.801-16.35 2-20.25 1.65-5.55 5.7-10.547 12-14.896-6.149-4.199-10.398-8.953-12.049-14.652-1.199-3.9-1.951-10.898-1.951-20.348 0-7.8-.35-12.051-2-14-1.649-1.949-6.25-3-13-3v-15z"/>
  <path d="M664.5 144.5v16.688c0 1.691-.184 2.808-.075 3.312H659.5c.108-.647 0-1.764 0-3.384V144.5h-2.202c-1.368 0-2.402-.072-2.798 0v-4h15v4c-.468-.072-1.332 0-2.664 0H664.5zm-47 15v5h-5v-24h5.399c2.699 0 5.121.653 6.777 2.165 1.656 1.476 1.823 3.478 1.823 5.781 0 2.34-.394 4.499-2.014 6.443-1.44 1.691-3.471 3.017-5.651 3.995l-1.334.616zm0-15v10c1.391-.547 2.094-.953 3.207-2 1.23-1.156 1.949-2.644 1.949-4.047 0-1.332-.618-2.167-1.554-2.959-.827-.72-2.378-.994-3.602-.994zm-43 20v-24h5v24h-5zm-42-4c-.036 1.692 0 4 0 4h-5v-24h5c2.7 0 5.608.747 7.265 2.259 1.656 1.476 2.735 3.384 2.735 5.688 0 2.627-1.021 4.967-3 7.019l1.885 6.336c.323.899.684 1.8 1.115 2.699h-5l-2-6c-.54.323-3 1.999-3 1.999zm0-16.086V155.5c1.403-.539 2.514-1.69 3.557-2.807 1.188-1.26 1.765-2.592 1.765-3.995 0-1.332-.469-2.412-1.404-3.204-.828-.72-1.872-1.08-3.096-1.08h-.822zm-45 7.086c0 5.796 1.725 8 5 8 2 0 3.964-1 3.964-1l.036 5c-1.547.688-3.096 1-4.212 1-6.083 0-9.788-4.396-9.788-13 0-2.987.379-5.696 2-8 1.764-2.556 4.688-4 7-4 1.332 0 2.976.184 4.964 1v5c-1.403-.72-2.884-1-3.964-1-2.625 0-5 1.563-5 7zm-51 12v-4c1.85 1 3.48 1.02 4.774 1.02 1.148 0 2.147-.222 2.96-.665.999-.557 1.477-1.334 1.518-2.333.033-.821-.074-1.257-.185-1.591-.223-.554-.666-1.073-1.333-1.479-.664-.408-1.887-1.186-3.626-2.332-2.96-1.927-4.108-3.702-4.108-6.514 0-4.071 2.406-6.106 7.218-6.106 1.702 0 4.104.225 5.771 1v5c-1.554-.999-3.958-2.039-5.698-2.039-1.813 0-2.702.664-2.702 1.995 0 1.001.396 1.796 1.581 2.536l3.491 2.201c1.591 1.038 2.738 2.147 3.402 3.296.632 1.073.926 2.332.926 3.811 0 2.591-.926 4.553-2.812 5.849-1.592 1.072-3.271 1.352-6.402 1.352-1.407-.001-3.087-.095-4.775-1.001z" fill="#4B4B4B"/>
  <path fill="#AAA" d="M372.5 137.5l6 24 28-8-25 2-9-18zm41 3l-28 8 25-2 9 18-6-24z"/>
  <path d="M617.5 130.5c.3-1.949 1-6.2 1-11V40.203c0-4.649-.7-7.903-1-9.703h18c-.3 1.949-1 5.054-1 9.404l-.001 42.596L644.5 68.553c1.5-1.95 2.25-3.402 3-5.053h20l-20 26 22 41h-18c-.449-1.5-1.252-4.05-3.201-7.65l-13.8-26.398.001 22.948c0 5.1.7 8.85 1 11.1h-18zm-44 0c.3-1.949 1-5.4 1-10.199V73.652c0-4.65-.7-8.353-1-10.152h17v5c3-3.449 7.8-6 12-6 1.8 0 2.799.25 4.898 1l.102 17c-2.55-1.8-5.9-2-8-2-2.85 0-5.7 1.602-9 4.452V120.5c0 5.1 1.699 7.75 2 10h-19zm-26 0v-5.55c-4.649 4.5-9.352 7.55-14.751 7.55-11.249 0-19.249-9.15-19.249-21 0-7.199 2.6-13.398 7.399-17.599 4.5-4.05 9.852-6.401 16.601-6.401 3.15 0 6.15 1.25 9 2v-3c0-6.3-3.25-8-10-8-4.35 0-9.7 1.6-16 4v-16c7.5-1.95 14.65-3 19-3 9.149 0 14.849 1.902 18.298 5.953 3.45 4.049 4.702 10.447 4.702 20.047v31c0 4.35.7 8.35 1 10h-16zm-1-27.749c-2.1-.899-3.852-1.251-6.251-1.251-2.851 0-5.1.8-7.05 2-2.25 1.5-3.699 4.15-3.699 7 0 4.05 3.699 6 7.449 6 5.85 0 9.551-3.6 9.551-9v-4.749zM464.287 30.5c26.426 0 39.213 15.893 39.213 49.113 0 17.063-1.621 29.336-6 36.887-5.437 9.361-15.655 14-30 14h-31c.453-2.566 1-7.054 1-14v-73c0-7.248-.547-10.734-1-13h27.787zM485.5 73.572c0-10.117-2.526-16.146-6-20.072-3.774-4.379-10.229-7-20.347-7h-3.775l.122 68h4c17.667 0 26-8.333 26-26V73.572z" fill="#4B4B4B"/>
  <path d="M389.5 125.146v5.354h-17c.3-1.65 1-5.35 1-10v-79c0-5.85-.7-9.35-1-11h18c-.149 1.8-1 5.301-1 11v26.349c4.65-2.851 9.351-3.349 13.701-3.349 7.949 0 14.099 2.448 18.599 9.498 3.75 6.15 5.7 12.803 5.7 21.502 0 8.85-1.95 17.347-6 23.946-4.8 7.649-11.249 12.054-19.199 12.054-5.399 0-9.201-2.454-12.801-6.354zm0-40.646v26c3.15 3.15 6.85 4 10 4 3.899 0 7.05-1.65 9-6 1.649-3.449 2-8.35 2-13 0-11.25-4.101-16-11-16-3.3 0-6.4 1.7-10 5zM313.903 121c-3-5.699-4.402-13.351-4.402-22.5v-22c0-6.75-.55-9.6-1-12h18c-.3 2.25-.85 4.801-1 12v22c0 5.699 1.152 9.9 2.502 12.451 1.5 3.149 4.448 5.549 8.498 5.549 2.85 0 5.55-2.7 9-6v-36c0-3.45-1-9.551-1-10h18c-.149 1.65-1 5.35-1 10v46c0 5.85.851 8.35 1 10h-17v-5c-4.65 4.05-9.75 6-15 6-7.95 0-12.848-3.45-16.598-10.5zM292.5 69.5h6v16h-6v34c0 4.65.551 8.75 1 11h-20c.449-2.55 1-6.051 1-11v-34h-27l-.101 35c0 5.399.65 7.75 1.101 10h-20c.45-2.4 1-5.35 1-10v-80c0-4.65-.55-7.6-1-10h20c-.45 2.55-1 5.5-1 10v29h27v-29c0-6.15-.551-7.75-1-10h20c-.449 2.25-1 6.101-1 10v29zm-89-6h13v16c-1.05 0-4.149-1-6.549-1H203.5v28c0 6.75 2.25 10 6.601 10 3.149 0 5.85-1.35 8.399-3v15c-3.75 1.949-8.1 3-13.35 3-7.35 0-12.299-2.303-15.148-7.553-2.101-3.9-3.502-10.047-3.502-18.447v-27h-2c-1.35 0-2.9.7-5 1v-16h8v-4c0-2.85-.699-6.35-1-8h18c-.3 1.949-1 5.6-1 8v4zm-54-23c0-6.149 5.15-11 11-11 5.55 0 10 4.851 10 11 0 6-4.45 11-10 11-5.849 0-11-5-11-11zm2 90c.15-1.949 1-6.2 1-11v-46c0-4.65-.85-8.2-1-10h18c-.15 1.949-1 5.65-1 10v45.9c0 5.1.85 8.85 1 11.1h-18zm-20-8c-1.35 2.399-4.053 4.496-7.502 6.446-4.35 2.249-8.948 3.554-14.498 3.554-24.749 0-38-17.352-38-52 0-32.998 14.852-51 42-51 7.8 0 14.301 2.05 20 7v18c-6.449-5.55-13.102-8-20.152-8C98.649 46.5 91.5 57.646 91.5 80.896c0 23.549 6.15 35.604 18 35.604 9.75 0 14-6 14-18 .15-1.199 0-5-1-12h19c-.45 4.35-1 8.75-1 14v18c0 5.55 1 11 1 13h-3l-7-9z" fill="#AAA"/>
  <path fill="#4183C4" d="M61.5 164.5h-5c-18.449 0-27-6.851-27-25l.025-5 .026-22.654c0-6.899-1.101-11.896-3.051-15.346-2.55-4.5-7-7-13-7v-15c6 0 10.45-2.5 13-7 1.95-3.45 3-9.052 3-15.951V40.5c0-9.15 1.65-15.95 6-20 4.2-3.75 11.451-6 20.6-6h5.4v15c-6.75 0-11.35 1.051-13 3s-2 7.2-2 15c0 9.449-.801 16.1-2 20-1.65 5.699-5.851 9.801-12 14 6.3 4.35 10.4 9.347 12.051 14.896 1.199 3.9 1.949 10.504 1.949 20.104v18c.024 7.322.404 10.113 2 12 1.65 1.949 6 2 13 2v16z"/>
</svg>
