<?xml version="1.0" encoding="UTF-8" standalone="no"?>
<svg
   xmlns:dc="http://purl.org/dc/elements/1.1/"
   xmlns:cc="http://creativecommons.org/ns#"
   xmlns:rdf="http://www.w3.org/1999/02/22-rdf-syntax-ns#"
   xmlns:svg="http://www.w3.org/2000/svg"
   xmlns="http://www.w3.org/2000/svg"
   xmlns:sodipodi="http://sodipodi.sourceforge.net/DTD/sodipodi-0.dtd"
   xmlns:inkscape="http://www.inkscape.org/namespaces/inkscape"
   viewBox="0 0 135.46666 135.46667"
   height="512"
   width="512"
   id="svg4557"
   version="1.1"
   inkscape:version="0.91+devel+osxmenu r12896"
   sodipodi:docname="logo.svg"
   inkscape:export-filename="/Users/silverwind/git/logo/logo.png"
   inkscape:export-xdpi="192"
   inkscape:export-ydpi="192">
  <metadata
     id="metadata4579">
    <rdf:RDF>
      <cc:Work
         rdf:about="">
        <dc:format>image/svg+xml</dc:format>
        <dc:type
           rdf:resource="http://purl.org/dc/dcmitype/StillImage" />
        <dc:title></dc:title>
      </cc:Work>
    </rdf:RDF>
  </metadata>
  <defs
     id="defs4577" />
  <sodipodi:namedview
     pagecolor="#ffffff"
     bordercolor="#666666"
     borderopacity="1"
     objecttolerance="10"
     gridtolerance="10"
     guidetolerance="10"
     inkscape:pageopacity="0"
     inkscape:pageshadow="2"
     inkscape:window-width="1366"
     inkscape:window-height="719"
     id="namedview4575"
     showgrid="false"
     inkscape:zoom="1.1328125"
     inkscape:cx="240.67497"
     inkscape:cy="234.65737"
     inkscape:window-x="0"
     inkscape:window-y="23"
     inkscape:window-maximized="0"
     inkscape:current-layer="g4559"
     inkscape:snap-object-midpoints="false" />
  <g
     transform="translate(-0.26458333,-161.533)"
     id="g4559">
    <rect
       rx="12.450233"
       y="161.51605"
       x="10.46503"
       height="135.51404"
       width="114.25217"
       id="rect4561"
       style="fill:#444444;fill-opacity:0.23529412;stroke-width:0.30709922" />
    <g
       id="g4563"
       style="fill:#444444;stroke:none;stroke-width:2;stroke-linejoin:round"
       transform="matrix(1.2022761,0,0,1.2022761,-13.603569,-45.899801)">
      <path
         d="m 52.793,242.687 q 0.68,4.906 2.672,7.334 3.643,4.42 12.483,4.42 5.294,0 8.597,-1.163 6.265,-2.235 6.265,-8.306 0,-3.545 -3.108,-5.49 -3.11,-1.892 -9.763,-3.35 l -7.58,-1.7 q -11.17,-2.525 -15.445,-5.49 -7.237,-4.952 -7.237,-15.492 0,-9.617 6.993,-15.98 6.996,-6.363 20.547,-6.363 11.316,0 19.282,6.023 8.013,5.974 8.402,17.39 l -14.373,0 q -0.39,-6.46 -5.635,-9.18 -3.497,-1.798 -8.694,-1.798 -5.78,0 -9.23,2.33 -3.45,2.33 -3.45,6.51 0,3.836 3.4,5.73 2.187,1.263 9.327,2.963 l 12.337,2.963 q 8.11,1.943 12.24,5.197 6.41,5.05 6.41,14.62 0,9.81 -7.527,16.32 -7.48,6.46 -21.177,6.46 -13.988,0 -22.002,-6.363 -8.015,-6.412 -8.015,-17.583 l 14.28,0 z m 14.523,-51.68 z"
         id="path4565"
         inkscape:connector-curvature="0"
         style="stroke:none" />
    </g>
    <g
       id="g4567"
       style="fill:#5599ff"
       transform="matrix(1.6113069,0,0,1.6113069,0.26458333,-139.4189)">
      <path
         d="m 5.78,239.793 q 0,-4.606 -1.535,-6.322 Q 2.8,231.756 0,231.756 l 0,-5.87 q 2.8,0 4.245,-1.807 1.535,-1.806 1.535,-5.78 l 0,-22.306 q 0,-4.245 1.626,-6.683 1.716,-2.53 5.51,-2.53 l 6.682,0 0,5.87 -3.522,0 q -2.077,0 -2.98,1.174 -0.813,1.084 -0.813,3.974 l 0,22.036 q 0,3.974 -1.536,6.05 -1.445,2.078 -3.522,2.53 l 0,0.54 q 2.077,0.362 3.522,2.8 1.536,2.35 1.536,6.142 l 0,21.946 q 0,2.8 0.812,3.973 0.904,1.174 3.07,1.174 l 3.435,0 0,5.87 -6.683,0 q -7.135,0 -7.135,-9.122 l 0,-21.945 z"
         id="path4569"
         inkscape:connector-curvature="0" />
    </g>
    <g
       id="g4571"
       style="fill:#ff5555"
       transform="matrix(1.6112997,0,0,1.6112997,-82.982706,-139.41755)">
      <path
         d="m 129.97,261.738 q 0,9.122 -7.135,9.122 l -6.683,0 0,-5.87 3.432,0 q 2.167,0 2.98,-1.175 0.903,-1.174 0.903,-3.973 l 0,-21.946 q 0,-3.793 1.445,-6.14 1.535,-2.44 3.612,-2.8 l 0,-0.543 q -2.077,-0.45 -3.612,-2.528 -1.445,-2.078 -1.445,-6.05 l 0,-22.037 q 0,-2.89 -0.903,-3.974 -0.813,-1.174 -2.89,-1.174 l -3.522,0 0,-5.87 6.683,0 q 3.793,0 5.42,2.53 1.714,2.437 1.714,6.682 l 0,22.308 q 0,3.972 1.444,5.778 1.536,1.807 4.335,1.807 l 0,5.87 q -2.8,0 -4.336,1.716 -1.445,1.717 -1.445,6.323 l 0,21.945 z"
         id="path4573"
         inkscape:connector-curvature="0" />
    </g>
  </g>
</svg>
