<svg xmlns="http://www.w3.org/2000/svg" viewBox="0 0 135.46666 135.46667" height="512" width="512">
    <g transform="translate(0 -161.533)">
        <rect fill-opacity=".2" stroke-width=".25" fill="#444" rx="6.288" y="186.768" x="6.979" height="84.103" width="122"/>
        <g stroke-linejoin="round" stroke-width="2" stroke="#999" fill="#444">
            <path d="M52.793 242.687q.68 4.906 2.672 7.334 3.643 4.42 12.483 4.42 5.294 0 8.597-1.163 6.265-2.235 6.265-8.306 0-3.545-3.108-5.49-3.11-1.892-9.763-3.35l-7.58-1.7q-11.17-2.525-15.445-5.49-7.237-4.952-7.237-15.492 0-9.617 6.993-15.98 6.996-6.363 20.547-6.363 11.316 0 19.282 6.023 8.013 5.974 8.402 17.39H80.528q-.39-6.46-5.635-9.18-3.497-1.798-8.694-1.798-5.78 0-9.23 2.33t-3.45 6.51q0 3.836 3.4 5.73 2.187 1.263 9.327 2.963l12.337 2.963q8.11 1.943 12.24 5.197 6.41 5.05 6.41 14.62 0 9.81-7.527 16.32-7.48 6.46-21.177 6.46-13.988 0-22.002-6.363-8.015-6.412-8.015-17.583h14.28zm14.523-51.68z"/>
        </g>
        <g fill="#59f">
            <path d="M5.78 239.793q0-4.606-1.535-6.322Q2.8 231.756 0 231.756v-5.87q2.8 0 4.245-1.807 1.535-1.806 1.535-5.78v-22.306q0-4.245 1.626-6.683 1.716-2.53 5.51-2.53h6.682v5.87h-3.522q-2.077 0-2.98 1.174-.813 1.084-.813 3.974v22.036q0 3.974-1.536 6.05-1.445 2.078-3.522 2.53v.54q2.077.362 3.522 2.8 1.536 2.35 1.536 6.142v21.946q0 2.8.812 3.973.904 1.174 3.07 1.174H19.6v5.87h-6.683q-7.135 0-7.135-9.122v-21.945z"/>
        </g>
        <g fill="#a02c2c">
            <path d="M129.97 261.738q0 9.122-7.135 9.122h-6.683v-5.87h3.432q2.167 0 2.98-1.175.903-1.174.903-3.973v-21.946q0-3.793 1.445-6.14 1.535-2.44 3.612-2.8v-.543q-2.077-.45-3.612-2.528-1.445-2.078-1.445-6.05v-22.037q0-2.89-.903-3.974-.813-1.174-2.89-1.174h-3.522v-5.87h6.683q3.793 0 5.42 2.53 1.714 2.437 1.714 6.682V218.3q0 3.972 1.444 5.778 1.536 1.807 4.335 1.807v5.87q-2.8 0-4.336 1.716-1.445 1.717-1.445 6.323v21.945z"/>
        </g>
    </g>
</svg>
