<svg xmlns="http://www.w3.org/2000/svg" width="512" height="512" viewBox="0 0 135.46666 135.46667"><g transform="translate(-.265 -161.533)"><rect width="114.25" height="135.51" x="10.47" y="161.52" fill="#444" fill-opacity=".24" rx="12.45"/><path fill="#444" stroke="#999" stroke-width="1.16" d="M50.34 245.45q.8 5.74 3.13 8.58 4.26 5.18 14.62 5.18 6.2 0 10-1.3 7.3-2.6 7.3-9.7 0-4.12-3.67-6.4-3.64-2.2-11.43-3.92l-8.9-2q-13.06-2.94-18.1-6.4-8.4-5.8-8.4-18.17 0-11.26 8.2-18.7 8.2-7.46 24.06-7.46 13.24 0 22.57 7.06 9.4 7 9.87 20.34H82.8q-.45-7.55-6.6-10.74-4.1-2.1-10.17-2.1-6.77 0-10.8 2.76-4.05 2.73-4.05 7.63 0 4.5 3.9 6.7 2.55 1.5 10.9 3.5l14.45 3.43q9.5 2.27 14.33 6.1 7.5 5.9 7.5 17.1 0 11.5-8.8 19.12-8.76 7.57-24.8 7.57-16.38 0-25.77-7.45-9.4-7.5-9.4-20.6h16.8zm17-60.53z" stroke-linejoin="round"/><path fill="#59f" d="M9.58 246.96q0-7.42-2.48-10.2Q4.78 234 .26 234v-9.44q4.52 0 6.84-2.9 2.48-2.92 2.48-9.32V176.4q0-6.85 2.62-10.78 2.76-4.08 8.88-4.08h10.76V171h-5.67q-3.35 0-4.8 1.9-1.3 1.74-1.3 6.4v35.5q0 6.4-2.5 9.75-2.32 3.35-5.66 4.08v.87q3.4.58 5.7 4.5 2.5 3.8 2.5 9.9v35.37q0 4.5 1.3 6.4 1.5 1.9 5 1.9h5.57V297H21.1q-11.5 0-11.5-14.7v-35.36z"/><path fill="#f55" d="M126.44 282.32q0 14.7-11.5 14.7h-10.77v-9.46h5.53q3.5 0 4.8-1.9 1.46-1.88 1.46-6.4V243.9q0-6.1 2.33-9.9 2.4-3.92 5.8-4.5v-.88q-3.4-.72-5.8-4.07-2.4-3.35-2.4-9.75v-35.5q0-4.66-1.5-6.4-1.3-1.9-4.67-1.9h-5.68v-9.46h10.76q6.1 0 8.74 4.08 2.76 3.92 2.76 10.76v35.95q0 6.4 2.36 9.3 2.5 2.92 7 2.92V234q-4.5 0-7 2.77-2.32 2.77-2.32 10.2v35.35z"/></g></svg>