<?xml version="1.0" encoding="UTF-8" standalone="no"?>
<svg
   xmlns:dc="http://purl.org/dc/elements/1.1/"
   xmlns:cc="http://creativecommons.org/ns#"
   xmlns:rdf="http://www.w3.org/1999/02/22-rdf-syntax-ns#"
   xmlns:svg="http://www.w3.org/2000/svg"
   xmlns="http://www.w3.org/2000/svg"
   version="1.1"
   id="svg4557"
   viewBox="0 0 135.46666 135.46667"
   height="512"
   width="512">
  <metadata
     id="metadata4579">
    <rdf:RDF>
      <cc:Work
         rdf:about="">
        <dc:format>image/svg+xml</dc:format>
        <dc:type
           rdf:resource="http://purl.org/dc/dcmitype/StillImage" />
        <dc:title></dc:title>
      </cc:Work>
    </rdf:RDF>
  </metadata>
  <defs
     id="defs4577" />
  <g
     id="g4559"
     transform="translate(0 -161.533)">
    <rect
       id="rect4561"
       fill-opacity=".188"
       stroke-width=".26"
       fill="#404040"
       rx="6.288"
       y="186.768"
       x="6.979"
       height="84.103"
       width="121.154" />
    <g
       id="g4563"
       stroke-linejoin="round"
       stroke-width="2"
       stroke="#9b9b9b"
       fill="#3c3c3c"
       style="line-height:125%">
      <path
         id="path4565"
         d="M52.793 242.687q.68 4.906 2.672 7.334 3.643 4.42 12.483 4.42 5.294 0 8.597-1.164 6.265-2.235 6.265-8.306 0-3.546-3.108-5.49-3.11-1.893-9.763-3.35l-7.578-1.7q-11.17-2.526-15.446-5.49-7.237-4.953-7.237-15.493 0-9.617 6.993-15.98 6.995-6.363 20.546-6.363 11.316 0 19.282 6.023 8.014 5.974 8.403 17.39H80.528q-.39-6.46-5.635-9.18-3.497-1.798-8.694-1.798-5.78 0-9.23 2.33-3.448 2.33-3.448 6.51 0 3.836 3.4 5.73 2.186 1.263 9.326 2.963l12.337 2.963q8.11 1.943 12.24 5.197 6.41 5.05 6.41 14.62 0 9.81-7.527 16.32-7.48 6.46-21.177 6.46-13.988 0-22.002-6.363-8.015-6.412-8.015-17.583h14.28zm14.523-51.68z" />
    </g>
    <g
       id="text4567"
       style="font-size:90.31099701px;line-height:125%;font-family:sans-serif;letter-spacing:0;word-spacing:0;fill:#5599ff;stroke-width:0.26499999">
      <path
         id="path4582"
         style="font-stretch:condensed;font-family:'PT Sans Narrow';-inkscape-font-specification:'PT Sans Narrow Condensed';fill:#5599ff;stroke-width:0.26499999"
         d="m 5.7802768,239.79254 q 0,-4.60586 -1.535287,-6.32177 -1.4449759,-1.7159 -4.2446168256,-1.7159 l 0,-5.87022 q 2.7996409256,0 4.2446168256,-1.80622 1.535287,-1.80622 1.535287,-5.7799 l 0,-22.30682 q 0,-4.24462 1.6255979,-6.68301 1.715909,-2.52871 5.5089713,-2.52871 l 6.683013,0 0,5.87021 -3.522129,0 q -2.077152,0 -2.980262,1.17405 -0.812799,1.08373 -0.812799,3.97368 l 0,22.03588 q 0,3.97369 -1.535287,6.05084 -1.4449763,2.07715 -3.5221293,2.52871 l 0,0.54186 q 2.077153,0.36125 3.5221293,2.79965 1.535287,2.34808 1.535287,6.14114 l 0,21.94558 q 0,2.79964 0.812799,3.97368 0.90311,1.17404 3.070573,1.17404 l 3.431818,0 0,5.87022 -6.683013,0 q -7.1345692,0 -7.1345692,-9.12141 l 0,-21.94558 z" />
    </g>
    <g
       id="text4571"
       style="font-size:90.31099701px;line-height:125%;font-family:sans-serif;letter-spacing:0;word-spacing:0;fill:#a02c2c;stroke-width:0.26499999">
      <path
         id="path4585"
         style="font-stretch:condensed;font-family:'PT Sans Narrow';-inkscape-font-specification:'PT Sans Narrow Condensed';fill:#a02c2c;stroke-width:0.26499999"
         d="m 129.96943,261.73812 q 0,9.12141 -7.13457,9.12141 l -6.68302,0 0,-5.87022 3.43182,0 q 2.16746,0 2.98026,-1.17404 0.90311,-1.17404 0.90311,-3.97368 l 0,-21.94558 q 0,-3.79306 1.44498,-6.14114 1.53529,-2.4384 3.61244,-2.79965 l 0,-0.54186 q -2.07715,-0.45156 -3.61244,-2.52871 -1.44498,-2.07715 -1.44498,-6.05084 l 0,-22.03588 q 0,-2.88995 -0.90311,-3.97368 -0.8128,-1.17405 -2.88995,-1.17405 l -3.52213,0 0,-5.87021 6.68302,0 q 3.79306,0 5.41866,2.52871 1.71591,2.43839 1.71591,6.68301 l 0,22.30682 q 0,3.97368 1.44497,5.7799 1.53529,1.80622 4.33493,1.80622 l 0,5.87022 q -2.79964,0 -4.33493,1.7159 -1.44497,1.71591 -1.44497,6.32177 l 0,21.94558 z" />
    </g>
  </g>
</svg>
