<svg xmlns="http://www.w3.org/2000/svg" viewBox="0 0 135.46666 135.46667" height="512" width="512"><g transform="translate(-.265 -161.533)"><rect rx="12.45" y="161.516" x="10.465" height="135.514" width="114.252" fill="#444" fill-opacity=".235" stroke-width=".307"/><path d="M50.34 245.446q.795 5.745 3.128 8.59 4.266 5.175 14.618 5.175 6.2 0 10.068-1.36 7.337-2.62 7.337-9.72 0-4.15-3.64-6.43-3.64-2.214-11.43-3.92l-8.87-1.99q-13.08-2.958-18.086-6.43-8.475-5.8-8.475-18.143 0-11.26 8.19-18.713 8.19-7.45 24.06-7.45 13.252 0 22.58 7.05 9.385 6.997 9.84 20.366H82.82q-.456-7.565-6.6-10.75-4.094-2.106-10.18-2.106-6.77 0-10.81 2.73-4.04 2.727-4.04 7.62 0 4.495 3.983 6.71 2.563 1.48 10.924 3.47l14.448 3.47q9.498 2.278 14.335 6.09 7.506 5.913 7.506 17.12 0 11.49-8.813 19.112-8.76 7.568-24.8 7.568-16.38 0-25.766-7.45-9.385-7.51-9.385-20.592H50.34zm17.006-60.52z" fill="#444" stroke="#999" stroke-width="1.164" stroke-linejoin="round"/><path d="M9.578 246.96q0-7.42-2.473-10.185-2.33-2.764-6.84-2.764v-9.45q4.51 0 6.84-2.91 2.473-2.91 2.473-9.312v-35.94q0-6.84 2.62-10.77 2.765-4.076 8.878-4.076h10.767V171h-5.675q-3.347 0-4.802 1.89-1.31 1.748-1.31 6.404V214.8q0 6.404-2.475 9.75-2.32 3.348-5.67 4.076v.87q3.35.584 5.68 4.512 2.476 3.786 2.476 9.897v35.36q0 4.513 1.31 6.403 1.455 1.892 4.945 1.892h5.536v9.458H21.078q-11.497 0-11.497-14.698v-35.36z" fill="#59f"/><path d="M126.438 282.32q0 14.7-11.497 14.7h-10.76v-9.46h5.53q3.495 0 4.805-1.893 1.454-1.89 1.454-6.4v-35.363q0-6.11 2.33-9.893 2.47-3.93 5.82-4.51v-.87q-3.35-.722-5.82-4.07-2.33-3.347-2.33-9.747V179.3q0-4.656-1.455-6.403-1.31-1.89-4.658-1.89h-5.675v-9.46h10.768q6.113 0 8.735 4.078 2.76 3.927 2.76 10.767v35.945q0 6.4 2.328 9.31 2.476 2.91 6.986 2.91v9.46q-4.51 0-6.987 2.764-2.33 2.77-2.33 10.19v35.36z" fill="#f55"/></g></svg>