<svg xmlns="http://www.w3.org/2000/svg" viewBox="0 0 135.46666 135.46667" height="512" width="512"><g transform="translate(-.265 -161.533)"><rect rx="12.45" y="161.52" x="10.47" height="135.51" width="114.25" fill="#444" fill-opacity=".24" stroke-width=".31"/><path d="M49.87 245.88q.82 5.9 3.2 8.8Q57.47 260 68.1 260q6.34 0 10.3-1.4 7.55-2.67 7.55-9.97 0-4.26-3.74-6.6-3.72-2.27-11.72-4.02l-9.1-2.03q-13.44-3.03-18.58-6.6-8.7-5.95-8.7-18.62 0-11.57 8.4-19.22 8.4-7.64 24.7-7.64 13.6 0 23.2 7.23 9.62 7.2 10.1 20.9H83.2q-.46-7.75-6.76-11.02-4.2-2.16-10.45-2.16-6.98 0-11.1 2.82-4.18 2.8-4.18 7.82 0 4.6 4.1 6.9 2.62 1.5 11.2 3.55l14.83 3.56q9.76 2.32 14.72 6.23 7.7 6.08 7.7 17.58 0 11.8-9.05 19.63-9 7.77-25.46 7.77-16.83 0-26.47-7.66-9.64-7.7-9.64-21.14h17.17zm17.46-62.14z" fill="#444" stroke="#999" stroke-width="2" stroke-linejoin="round"/><path d="M9.58 246.96q0-7.42-2.48-10.2Q4.78 234 .26 234v-9.44q4.52 0 6.84-2.9 2.48-2.92 2.48-9.32V176.4q0-6.85 2.62-10.78 2.76-4.08 8.88-4.08h10.76V171h-5.67q-3.35 0-4.8 1.9-1.3 1.74-1.3 6.4v35.5q0 6.4-2.5 9.75-2.32 3.35-5.66 4.08v.87q3.37.58 5.7 4.5 2.48 3.8 2.48 9.9v35.37q0 4.5 1.3 6.4 1.46 1.9 4.95 1.9h5.55V297h-10.8q-11.5 0-11.5-14.7v-35.36z" fill="#59f"/><path d="M126.44 282.32q0 14.7-11.5 14.7h-10.77v-9.46h5.53q3.5 0 4.8-1.9 1.46-1.88 1.46-6.4V243.9q0-6.1 2.33-9.9 2.44-3.92 5.8-4.5v-.88q-3.36-.72-5.8-4.07-2.36-3.35-2.36-9.75v-35.5q0-4.66-1.46-6.4-1.3-1.9-4.66-1.9h-5.68v-9.46h10.77q6.1 0 8.74 4.08 2.77 3.92 2.77 10.76v35.95q0 6.4 2.33 9.3 2.48 2.92 7 2.92V234q-4.52 0-7 2.77-2.33 2.77-2.33 10.2v35.35z" fill="#f55"/></g></svg>