<svg xmlns="http://www.w3.org/2000/svg" viewBox="0 0 135.46666 135.46667" height="512" width="512"><g transform="translate(-.265 -161.533)"><rect rx="12.45" y="161.52" x="10.47" height="135.51" width="114.25" fill="#444" fill-opacity=".24"/><path d="M48 247.58q.9 6.5 3.55 9.72 4.83 5.86 16.55 5.86 7 0 11.4-1.55 8.3-2.9 8.3-11 0-4.7-4.12-7.2-4.13-2.5-12.94-4.4l-10.04-2.3q-14.8-3.35-20.5-7.3-9.6-6.55-9.6-20.52 0-12.75 9.3-21.18 9.22-8.5 27.2-8.5 15 0 25.53 8 10.62 7.93 11.14 23.06h-19q-.53-8.6-7.48-12.2-4.6-2.4-11.5-2.4-7.7 0-12.3 3.1-4.58 3.1-4.58 8.62 0 5.1 4.5 7.6 2.9 1.7 12.35 3.92l16.35 3.93q10.74 2.57 16.2 6.9 8.5 6.67 8.5 19.36 0 13-9.96 21.62-9.9 8.54-28.07 8.54-18.55 0-29.17-8.45-10.6-8.5-10.6-23.3H48zm19.26-68.5z" fill="#444" stroke="#999" stroke-width="2" stroke-linejoin="round"/><path d="M9.58 246.96q0-7.42-2.48-10.2Q4.78 234 .26 234v-9.44q4.52 0 6.84-2.9 2.48-2.92 2.48-9.32V176.4q0-6.85 2.62-10.78 2.76-4.08 8.88-4.08h10.76V171h-5.67q-3.35 0-4.8 1.9-1.3 1.74-1.3 6.4v35.5q0 6.4-2.5 9.75-2.32 3.35-5.66 4.08v.87q3.4.58 5.7 4.5 2.5 3.8 2.5 9.9v35.37q0 4.5 1.3 6.4 1.5 1.9 5 1.9h5.57V297H21.1q-11.5 0-11.5-14.7v-35.36z" fill="#59f"/><path d="M126.44 282.32q0 14.7-11.5 14.7h-10.77v-9.46h5.53q3.5 0 4.8-1.9 1.46-1.88 1.46-6.4V243.9q0-6.1 2.33-9.9 2.4-3.92 5.8-4.5v-.88q-3.4-.72-5.8-4.07-2.4-3.35-2.4-9.75v-35.5q0-4.66-1.5-6.4-1.3-1.9-4.67-1.9h-5.68v-9.46h10.76q6.1 0 8.74 4.08 2.76 3.92 2.76 10.76v35.95q0 6.4 2.36 9.3 2.5 2.92 7 2.92V234q-4.5 0-7 2.77-2.32 2.77-2.32 10.2v35.35z" fill="#f55"/></g></svg>
