<svg xmlns="http://www.w3.org/2000/svg" width="860" height="160" viewBox="0 0 860 160">
	<path fill="#4183C4" d="M61 142.3h-5c-18.4 0-27-7-27-25v-11.7c0-7-1-11.8-3-15.3-2.5-4.5-7-7-13-7v-15c6 0 10.4-2.5 13-7 2-3.5 3-9 3-16v-11c0-9.2 1.6-16 6-20 4.2-3.8 11.5-6 20.6-6H61v15c-6.8 0-11.3 1-13 3s-2 7.2-2 15c0 9.4-.8 16-2 20-1.6 5.7-6 9.8-12 14a27.8 27.8 0 0 1 12 15c1.3 3.8 2 10.4 2 20 0 7.8.3 12 2 14s6 2 13 2v16z"/>
	<path fill="#4B4B4B" d="M735 126.1c.3-2 1-6 1-11v-79c0-4.7-.7-8-1-9.7h18c-.3 2-1 5-1 9.5v42.2l10-14a18 18 0 0 0 3-5h20l-20 26 22 41h-18c-.4-1.4-1.3-4-3.2-7.6L752 92.2v23c0 5 .7 8.8 1 11h-18v-.1zm-44 0c.3-2 1-5.3 1-10v-47c0-4.6-.7-8.3-1-10h17v5c3-3.6 7.8-6 12-6 1.8 0 2.8 0 5 1v17c-2.5-2-6-2-8-2-3 0-5.7 1.5-9 4.3v37.7c0 5.2 1.7 7.8 2 10h-19zm-26 0v-5.5c-4.6 4.5-9.4 7.6-14.8 7.6-11.2 0-19.2-9-19.2-21a23.7 23.7 0 0 1 23.9-23.9c3 0 6 1.2 9 2v-3c0-6.3-3.4-8-10-8-4.4 0-9.8 1.6-16 4V62c7.4-2 14.6-3 19-3 9 0 14.7 2 18.2 6 3.4 4 4.7 10.5 4.7 20v31c0 4.4.6 8.4 1 10h-16l.2.1zm-1-27.7a15.1 15.1 0 0 0-13.3.8 8.5 8.5 0 0 0-3.7 7c0 4 3.7 6 7.4 6 5.8 0 9.5-3.5 9.5-9v-4.8h.1zm-77.2-72.3c26.4 0 39.2 16 39.2 49.2 0 17-1.6 29.2-6 37-5.4 9-15.7 14-30 14h-31c.5-2.8 1-7.3 1-14V39c0-7.4-.5-11-1-13h27.8v.1zm21.2 43c0-10-2.5-16-6-20-3.8-4.3-10.2-7-20.3-7H578v68h4c17.7 0 26-8.3 26-26v-15z"/>
	<path fill="#FF6262" d="M801 7.8h5.5c9 0 16.3 2.3 20.5 6 4.3 4 6 9.8 6 19v12c0 7 0 10.6 2 14 2.5 4.5 8 9 14 9v15c-6 0-10.4 2.5-13 7-2 3.5-3 9-3 16v11c0 18-8 26-26.6 26H801v-16c7 0 11.3-1 13-3 1.6-2 2-6 2-14 0-9.5.7-16.2 2-20a27.3 27.3 0 0 1 12-15c-6-4.2-10.5-9-12-14.7-1.3-4-2-10.7-2-20.2 0-7.8-.4-12-2-14-1.7-2-6.4-3-13-3V7.8z"/>
	<path fill="#AAA" d="M103.1 23.4c27.2 0 40.8 17 40.8 51.2 0 17.4-2.2 30-6.7 37.8-5.5 9.6-15.7 14.4-30.3 14.4H74.5c.4-2.6.6-7.4.6-14.6v-74c0-7.5-.2-12.4-.6-14.8H103zm21.6 45c0-10.4-1.8-17.5-5.4-21.6-4-4.4-11-6.6-21.4-6.6H94v69.7h4.8c9.1 0 15.7-2 19.8-5.8 4-3.9 6-10.4 6-19.5V68.4zM159.7 45.9c-3 0-5.6-1.1-7.7-3.4-2.1-2.3-3.2-5-3.2-8 0-3.3 1.1-6 3.2-8.3a10.1 10.1 0 0 1 15.2 0c2.1 2.3 3.2 5 3.2 8.2 0 3.1-1 5.8-3.2 8a10 10 0 0 1-7.5 3.5zm-8.8 80.9c.2-2 .3-5.6.3-10.5V68c0-4.9-.1-8.3-.3-10.1h17.5c-.2 2-.3 5.2-.3 9.7v47.6c0 5.3 0 9.1.3 11.5h-17.5zM194 128a40 40 0 0 1-18.2-4.3v-17.8c5.4 4 11.4 6 18.2 6 6 0 9-1.6 9-4.8 0-2.3-1.8-4.3-5.3-6l-8.2-4.5c-9-5.3-13.5-12-13.5-20 0-6.3 2.1-11.2 6.3-14.6 4-3 9-4.6 15-4.6 6.7 0 12.8 1.4 18.4 4.3V75c-6-2.8-11.9-4.2-17.6-4.2-4 0-6 1.5-6 4.4 0 2 1.4 3.7 4.2 5.3l9.8 5.2c9.5 5.5 14.2 12.3 14.2 20.5 0 7.5-2.7 13.2-8.2 17A31.3 31.3 0 0 1 194 128zM253.9 127.9c-9 0-16.2-3.4-21.7-10.2-5.3-6.6-8-14.7-8-24.4s2.6-18 7.7-24.8a26 26 0 0 1 21.8-11c5.2 0 10.5 1.5 16 4.5v16.4a19.1 19.1 0 0 0-12.9-5.5 13 13 0 0 0-11.3 6.2c-2.4 3.6-3.6 8-3.6 13.1s1.3 9.4 3.8 13c2.8 4 6.5 6.1 11.1 6.1 5 0 10-2 15-6.2v18c-6.2 3.2-12.1 4.8-18 4.8zM304.3 127.9c-10 0-17.4-3.5-22.3-10.4a42.8 42.8 0 0 1-6.4-24.8c0-23.4 9.6-35 28.7-35 18.9 0 28.3 11.6 28.3 35 0 10.3-2 18.5-6.3 24.6-4.9 7-12.2 10.6-22 10.6zm-.2-55c-4.7 0-7.9 2.2-9.4 6.8-1 2.6-1.4 7-1.4 13 0 6.1.4 10.4 1.4 13 1.5 4.6 4.7 6.8 9.4 6.8 4.8 0 8-2.2 9.5-6.6.9-2.6 1.4-7 1.4-13.2 0-6-.5-10.4-1.4-13-1.6-4.6-4.7-6.8-9.5-6.8zM362.2 127.4c-8.2 0-14.2-3.6-18.1-10.8a49.6 49.6 0 0 1-4.7-23.1V72.2c0-7-.2-11.7-.6-14.2h18.6a154 154 0 0 0-.6 14.6l-.2 20.9c0 5.9.7 10.1 2 12.7 1.6 3.2 4.4 4.8 8.6 4.8 2.8 0 6.1-1.7 9.7-5.1V67.7a67.9 67.9 0 0 0-.6-9.7h18c-.2 1.7-.3 5-.3 9.7v47.5c0 6 0 10 .3 11.6h-17v-5.6a22.8 22.8 0 0 1-15.1 6.2zM403.6 126.8c.3-2 .5-5.6.5-10.5V68a72 72 0 0 0-.5-10.1h17v4.6c3-3.6 6.7-5.4 11-5.4 2 0 4 .4 6.1 1.2V76a13.2 13.2 0 0 0-7.3-2.8c-2.9 0-6 1.5-9.4 4.5v37.6c0 5.3.1 9.1.5 11.5h-17.9zM460.2 128a40 40 0 0 1-18.2-4.3v-17.8c5.4 4 11.4 6 18.2 6 6 0 9-1.6 9-4.8 0-2.3-1.8-4.3-5.3-6l-8.2-4.5c-9-5.3-13.5-12-13.5-20 0-6.3 2-11.2 6.3-14.6 4-3 9-4.6 15-4.6 6.7 0 12.8 1.4 18.4 4.3V75c-6-2.8-11.9-4.2-17.6-4.2-4 0-6 1.5-6 4.4 0 2 1.4 3.7 4.2 5.3l9.7 5.2c9.5 5.5 14.3 12.3 14.3 20.5 0 7.5-2.7 13.2-8.2 17a31.3 31.3 0 0 1-18.1 4.8zM543.4 97.7h-34.5c.9 9.9 5.8 14.8 14.8 14.8a27 27 0 0 0 15.5-4.5v16.6a47 47 0 0 1-16.6 3.6 28.7 28.7 0 0 1-23.7-10.4c-5.4-6.5-8-15.2-8-26.2 0-9.3 2.1-17.1 6.6-23.5 5-7 11.8-10.6 20.4-10.6 8.5 0 15 3 19.6 8.7a34.8 34.8 0 0 1 6.3 21.8c0 3.6-.1 6.8-.4 9.7zm-25-26c-6 0-9.2 4-9.6 11.9h19c-.2-7.9-3.3-11.8-9.4-11.8z"/>
</svg>