<svg xmlns="http://www.w3.org/2000/svg" width="918.5" height="136.5" viewBox="-45.3 0 918.5 136.5"><path fill="#4183C4" d="M4.3 119.5H.2c-15 0-22-5.7-22-20.3v-9.6c0-5.6-.8-9.6-2.4-12.4-2-3.7-5.7-5.7-10.5-5.7V59.3c4.8 0 8.4-2 10.5-5.7 1.6-2.8 2.4-7.3 2.4-13v-9c0-7.4 1.4-13 5-16.2 3.3-3.1 9.3-4.9 16.7-4.9h4.3v12.2c-5.5 0-9.1.8-10.5 2.4C-7.7 26.8-8 31-8 37.3c0 7.7-.7 13-1.7 16.3-1.3 4.6-4.8 8-9.7 11.4 4.6 2.8 8 7.1 9.7 12.2 1 3 1.7 8.5 1.7 16.3 0 6.3.2 9.7 1.6 11.4s4.9 1.6 10.6 1.6v13z"/><path fill="#4B4B4B" d="M775 104.7c.2-1.6.8-4.9.8-9v-64c0-3.7-.6-6.4-.8-7.8h14.6c-.3 1.7-.9 4-.9 7.7v34.2l8.1-11.3c1-1.2 1.9-2.6 2.5-4h16.2l-16.2 21 17.8 33.2h-14.6a33 33 0 0 0-2.6-6.2l-11.2-21.3V96c0 4 .6 7 .9 8.9H775v-.1zm-35.7 0c.3-1.6.8-4.3.8-8.1v-38c0-3.8-.5-6.8-.8-8.2h13.8v4c2.4-2.8 6.3-4.8 9.7-4.8 1.5 0 2.3 0 4 .8v13.8c-2-1.6-4.8-1.6-6.4-1.6-2.4 0-4.6 1.2-7.3 3.5v30.5c0 4.2 1.4 6.3 1.6 8h-15.4zm-21 0v-4.5c-3.8 3.7-7.6 6.2-12 6.2-9 0-15.6-7.3-15.6-17A19.2 19.2 0 0 1 710.1 70c2.4 0 4.8 1 7.3 1.6v-2.4c0-5-2.8-6.5-8.1-6.5-3.6 0-8 1.3-13 3.3V52.8c6-1.7 11.8-2.5 15.4-2.5 7.3 0 12 1.7 14.8 4.9 2.7 3.2 3.8 8.5 3.8 16.2v25.1c0 3.6.4 6.8.8 8.1h-13 .2zm-.8-22.4a12.2 12.2 0 0 0-10.8.6 6.9 6.9 0 0 0-3 5.7c0 3.2 3 4.8 6 4.8 4.7 0 7.7-2.8 7.7-7.3v-3.8zm-62.6-58.6c21.4 0 31.8 13 31.8 39.8 0 13.8-1.3 23.7-4.9 30-4.4 7.3-12.7 11.4-24.3 11.4h-25c.3-2.3.7-6 .7-11.4V34.1c0-6-.4-8.9-.8-10.5H655zm17.2 34.8c0-8-2-13-4.9-16.2-3-3.5-8.2-5.6-16.4-5.6h-3v55h3.2c14.4 0 21.1-6.7 21.1-21V58.5z"/><path fill="#FF6262" d="M825.3 10.5h4.4c7.3 0 13.3 1.9 16.7 4.8 3.5 3.3 4.9 8 4.9 15.4v9.7c0 5.6 0 8.5 1.6 11.3 2 3.6 6.5 7.2 11.4 7.2v12.2c-5 0-8.5 2-10.6 5.6a27 27 0 0 0-2.4 13v8.8c0 14.5-6.6 21-21.7 21h-4.4v-13c5.7 0 9.2-.7 10.6-2.3 1.3-1.7 1.6-4.9 1.6-11.3 0-7.7.6-13.1 1.7-16.2a22 22 0 0 1 9.7-12.1c-4.9-3.4-8.5-7.3-9.7-11.9a58 58 0 0 1-1.7-16.3c0-6.3-.3-9.7-1.6-11.3-1.4-1.6-5.2-2.4-10.6-2.4V10.5z"/><path fill="#AAA" d="M58.2 98.2c-1 2-3 3.6-5.7 5.2a24.8 24.8 0 0 1-11.9 2.7C20.8 106.1 11 92.3 11 64.5c0-13.2 2.8-23.2 8.4-30.2C24.9 27.3 33 24 44 24c6.2 0 11.6 2 16.1 6v13.6A24.5 24.5 0 0 0 44 37c-11.8 0-17.7 9.4-17.7 28 0 18.8 4.8 28.3 14.3 28.3 7.8 0 11.6-4.8 11.6-14.4.1-1 0-4-.2-9.4h14.6c-.3 3.5-.5 7.3-.5 11.4v14a74.9 74.9 0 0 0 .5 10.1c-.5.2-1.4.2-2.5 0l-5.9-6.7zM127.6 56h4v13.1h-4v27.5c0 3.7.2 6.5.5 8.4h-15.7c.3-2.1.5-5.1.5-9.1V69H91v26.6c0 4.4.2 7.4.5 9.3H76c.4-2 .5-4.7.5-8.4V33.4A55 55 0 0 0 76 25h15.6c-.3 2-.5 4.8-.5 8.4v22.7H113V35c0-4.9-.2-8.2-.5-10H128c-.3 1.7-.5 4.1-.5 7.2v23.8zM186.3 37.5c-5 0-9 3-12.2 9-2.7 5.2-4 10.7-4 16.6 0 19.2 5.4 28.9 16.2 28.9 2.6 0 4.8-.3 6.6-1l6-2.9v15.3a49.5 49.5 0 0 1-14 2.6c-20.2 0-30.3-14.3-30.3-43a45 45 0 0 1 8-26.3C168.4 28.2 176 24 185 24c4.4 0 9 1 14 2.8V41a28.2 28.2 0 0 0-12.6-3.6zM226.9 105.2c-7.7 0-13.5-2.7-17.3-8-3.3-4.8-5-11.2-5-19.3 0-18 7.5-27 22.3-27 14.6 0 22 9 22 27 0 8-1.7 14.4-5 19.1-3.8 5.4-9.4 8.2-17 8.2zm-.2-42.6c-3.6 0-6 1.8-7.3 5.3-.7 2-1 5.3-1 10 0 4.8.3 8.1 1 10.1 1.2 3.5 3.7 5.3 7.4 5.3 3.6 0 6-1.7 7.3-5.2.7-2 1-5.4 1-10.2 0-4.7-.3-8-1-10-1.2-3.5-3.7-5.3-7.3-5.3zM290.6 56.1c4-3.3 8.8-4.9 14.3-4.9 6.2 0 11 2.8 14.2 8.4a36.5 36.5 0 0 1 3.8 17.7v16.5c0 5.4.2 9 .5 11H309c.4-2.6.6-6.3.6-11.3V77.3c0-8.7-2.4-13.1-7.2-13.1-3.3 0-5.7.6-7.3 1.9.7 3.3 1 7 1 11.2v16.5c0 5.4.2 9 .6 11h-14.4c.4-2.6.6-6.3.6-11.3l.1-16.2c0-5-.5-8.5-1.4-10.3-.9-2-2.6-2.8-5-2.8a10 10 0 0 0-7 3.2v29.8a67.6 67.6 0 0 0 .3 7.6h-13.9c.3-1.4.4-3.9.4-7.6V59.8c0-4.3-.1-7-.4-8.4l13.2.2v3.8c3.5-2.8 6.8-4.2 10-4.2 4.7 0 8.5 1.6 11.3 5zM366.6 56.1c4-3.3 8.8-4.9 14.3-4.9 6.2 0 11 2.8 14.2 8.4a36.5 36.5 0 0 1 3.8 17.7v16.5c0 5.4.2 9 .5 11H385c.4-2.6.6-6.3.6-11.3V77.3c0-8.7-2.4-13.1-7.2-13.1-3.3 0-5.7.6-7.3 1.9.7 3.3 1 7 1 11.2v16.5c0 5.4.2 9 .6 11h-14.4c.4-2.6.6-6.3.6-11.3l.1-16.2c0-5-.5-8.5-1.4-10.3-.9-2-2.6-2.8-5-2.8a10 10 0 0 0-7 3.2v29.8a67.6 67.6 0 0 0 .3 7.6h-13.9c.3-1.4.4-3.9.4-7.6V59.8a59 59 0 0 0-.4-8.4l13.2.2v3.8c3.5-2.8 6.8-4.2 10-4.2 4.7 0 8.5 1.6 11.3 5zM425.4 104.9a15 15 0 0 1-14-8.4 38.3 38.3 0 0 1-3.6-17.9V62.2c0-5.5-.2-9.1-.5-11h14.4c-.3 1.7-.4 5.5-.5 11.2l-.1 16.2c0 4.6.5 7.8 1.5 9.8 1.2 2.5 3.4 3.7 6.6 3.7 2.3 0 4.8-1.3 7.6-4V58.8a53 53 0 0 0-.5-7.6h14c-.2 1.4-.3 4-.3 7.6v36.7c0 4.7 0 7.7.2 9h-13V100a17.7 17.7 0 0 1-11.8 4.8zM485 51.1c6.4 0 11.4 2.8 14.9 8.4 3 4.8 4.4 10.8 4.4 17.9v16.4c0 5.5.2 9.1.5 11h-14.4c.3-1.8.4-5.5.5-11.2l.1-16.2c.1-9-2.8-13.5-8.6-13.5-2.6 0-5.4 1.3-8.2 4v29.4a67 67 0 0 0 .4 7.6h-14c.3-1.4.5-4 .5-7.6V60.5c0-4.6-.2-7.6-.4-8.9h13.2V56c3.6-3.2 7.2-4.8 11-4.8zM519.8 42.6c-2.3 0-4.3-.8-6-2.6a8.8 8.8 0 0 1-2.4-6.2 9 9 0 0 1 2.5-6.4 7.8 7.8 0 0 1 11.7 0 9 9 0 0 1 2.5 6.4c0 2.4-.8 4.4-2.5 6.2a7.7 7.7 0 0 1-5.8 2.6zm-6.8 62.6l.2-8.1V59.8c0-3.8 0-6.4-.2-7.8h13.5l-.2 7.5v36.8c0 4.1 0 7 .2 9H513zM552.3 52h10.4v11.6h-2.2c-1-.2-2.1-.2-3-.2h-5.2v22.3c0 5.3 1.7 8 5.3 8 2.4 0 4.7-.7 6.7-2v12c-3 1.6-6.5 2.4-10.7 2.4-5.8 0-9.9-2.1-12.1-6.3-1.7-3-2.5-8-2.5-14.7V63.6h.1v-.2l-1.8-.1c-1 0-2.4 0-4 .3V52h5.8v-4.7c0-2.2-.1-4-.4-5.4h14c-.3 1.6-.4 3.3-.4 5.2V52zM576.1 132l8-26.8c-.4-1.1-1-3.2-1.7-6.1L569.2 52H583l1.8 7.3 6 25.4 6-25 1.6-7.7h14l-20 71.4a77 77 0 0 0-2 8.6H576z"/></svg>