<svg xmlns="http://www.w3.org/2000/svg" width="508" height="160" viewBox="0 0 508 160">
	<path fill="#4183C4" d="M61 148h-5c-18.4 0-27-7-27-25v-11.7c0-7-1-11.8-3-15.3-2.5-4.5-7-7-13-7V74c6 0 10.4-2.5 13-7 2-3.5 3-9 3-16V40c0-9.2 1.6-16 6-20 4.2-3.8 11.5-6 20.6-6H61v15c-6.8 0-11.3 1-13 3s-2 7.2-2 15c0 9.4-.8 16-2 20-1.6 5.7-6 9.8-12 14 6.3 4.3 10.4 9.3 12 15 1.3 3.8 2 10.4 2 20 0 7.8.3 12 2 14s6 2 13 2v16z"/>
	<path fill="#4B4B4B" d="M384 130c.4-2 1-6 1-11V40c0-4.7-.6-8-1-9.7h18c-.2 2-1 5-1 9.5V82l10-14c1.6-1.8 2.4-3.3 3-5h20l-20 26 22 41h-18c-.3-1.4-1.2-4-3-7.6L401 96v23c0 5 .8 8.8 1 11h-18zm-44 0c.4-2 1-5.3 1-10V73c0-4.6-.6-8.3-1-10h17v5c3-3.6 8-6 12-6 2 0 3 0 5 1v17c-2.4-2-6-2-8-2-3 0-5.6 1.5-9 4.3V120c0 5.2 1.8 7.8 2 10h-19zm-26 0v-5.5c-4.5 4.5-9.3 7.6-14.7 7.6-11.3 0-19.3-9-19.3-21 0-7 2.7-13 7.5-17.3 4.3-4 9.7-6.4 16.4-6.4 3 0 6 1.3 9 2v-3c0-6.2-3.5-8-10-8-4.5 0-10 1.7-16 4V66c7.3-2 14.5-3 19-3 9 0 14.6 2 18 6 3.5 4 5 10.5 5 20v31c0 4.4.5 8.4 1 10h-16zm-1-27.7c-2-1-4-1.2-6.2-1.2-3 0-5 1-7 2-2.4 1.8-3.8 4.4-3.8 7 0 4 3.8 6 7.5 6 5.7 0 9.4-3.3 9.4-9v-4.7zM236 30c26.4 0 39.2 16 39.2 49.2 0 17-1.5 29.3-6 37-5.3 9.2-15.6 14-30 14h-31c.6-2.7 1-7.2 1-14V43c0-7.4-.4-11-1-13H236zm21 43c0-10-2.4-16-6-20-3.7-4.3-10-7-20.2-7h-4v68h4c18 0 26-8.3 26-26V73h.3z"/>
	<path fill="#FF6262" d="M448 13h5.5c9 0 16.2 2.3 20.4 6 4 4 6 9.8 6 19v12c0 7 0 10.6 2 14 2.3 4.5 8 9 14 9v15c-6 0-10.6 2.5-13 7-2 3.5-3 9-3 16v11c0 18-8 26-26.8 26h-5.5v-16c7 0 11.4-1 13-3 1.7-2 2-6 2-14 0-9.5.8-16.2 2-20 1.7-5.7 5.7-10.7 12-15-6-4.2-10.4-9-12-14.7-1.2-4-2-10.8-2-20.3 0-7.8-.3-12-2-14-1.6-2-6.3-3-13-3V13h.3z"/>
	<path fill="#AAA" d="M94 131.6c-5.7 0-12-1.4-19.2-4V108c7.5 4 14 6 19.2 6 4.7 0 8.8-.8 12-2.6 4.2-2.3 6.2-5.4 6.2-9.5 0-2.8-.2-5-.7-6.4-1-2.3-2.7-4.3-5.4-6L91.4 80c-6-3.8-10.3-7.8-13-11.8-2.4-4-3.7-9-3.7-14.6 0-16.5 9.8-24.8 29.4-24.8 7 0 13.7 1.5 20.4 4.6V51c-6.3-4-13-6-20-6-7.5 0-11 2.6-11 8 0 4 2.3 7.7 7 10.7l13.5 8.6c6.4 4.2 11 8.7 13.7 13.4 2.5 4.3 3.8 9.4 3.8 15.5 0 10.5-3.8 18.4-11.4 23.7-6.5 4.4-15 6.6-26 6.6zM141.7 130.2c.4-2.5.6-6.3.6-11.4v-76c0-6.8-.2-11.2-.6-13h49.7v17c-2-.4-5.8-.6-11-.6h-19.7v23.5H175c4.3 0 7.7 0 10-.4v16.5c-2-.3-4.8-.4-8.7-.4h-15.6v28.4H182c4 0 7.8 0 11-.4v16.8h-51.3z"/>
</svg>