<svg xmlns="http://www.w3.org/2000/svg" width="860" height="160" viewBox="0 0 860 160">
	<path fill="#4183C4" d="M61 142.3h-5c-18.4 0-27-7-27-25v-11.7c0-7-1-11.8-3-15.3-2.5-4.5-7-7-13-7v-15c6 0 10.4-2.5 13-7 2-3.5 3-9 3-16v-11c0-9.2 1.6-16 6-20 4.2-3.8 11.5-6 20.6-6H61v15c-6.8 0-11.3 1-13 3s-2 7.2-2 15c0 9.4-.8 16-2 20-1.6 5.7-6 9.8-12 14 6.3 4.3 10.4 9.3 12 15 1.3 3.8 2 10.4 2 20 0 7.8.3 12 2 14s6 2 13 2v16z"/>
	<path fill="#4B4B4B" d="M735 124.7c.3-2 1-6 1-11v-79c0-4.7-.7-8-1-9.7h18c-.3 2-1 5-1 9.5v42.2l10-14c1.5-1.8 2.3-3.3 3-5h20l-20 26 22 41h-18c-.4-1.4-1.3-4-3.2-7.6L752 90.8v23c0 5 .7 8.8 1 11h-18zm-44 0c.3-2 1-5.3 1-10v-47c0-4.6-.7-8.3-1-10h17v5c3-3.6 7.8-6 12-6 1.8 0 2.8 0 5 1v17c-2.5-2-6-2-8-2-3 0-5.7 1.5-9 4.3v37.7c0 5.2 1.7 7.8 2 10h-19zm-26 0v-5.5c-4.6 4.5-9.4 7.6-14.8 7.6-11.2 0-19.2-9-19.2-21 0-7 2.6-13.3 7.4-17.5 4.4-4 9.8-6.4 16.5-6.4 3 0 6 1.2 9 2v-3c0-6.3-3.4-8-10-8-4.4 0-9.8 1.6-16 4V60.6c7.4-2 14.6-3 19-3 9 0 14.7 2 18.2 6 3.4 4 4.7 10.5 4.7 20v31c0 4.4.6 8.4 1 10h-16zM664 97c-2-1-4-1.2-6.3-1.2-2.8 0-5 1-7 2-2.3 1.6-3.7 4.2-3.7 7 0 4 3.7 6 7.4 6 5.8 0 9.5-3.5 9.5-9V97zm-77.2-72.3c26.4 0 39.2 16 39.2 49.2 0 17-1.6 29.2-6 37-5.4 9-15.7 14-30 14h-31c.5-2.8 1-7.3 1-14V37.6c0-7.4-.5-11-1-13h27.8zm21.2 43c0-10-2.5-16-6-20-3.8-4.3-10.2-7-20.3-7H578v68h4c17.7 0 26-8.3 26-26v-15z"/>
	<path fill="#FF6262" d="M801 7.8h5.5c9 0 16.3 2.3 20.5 6 4.3 4 6 9.8 6 19v12c0 7 0 10.6 2 14 2.5 4.5 8 9 14 9v15c-6 0-10.4 2.5-13 7-2 3.5-3 9-3 16v11c0 18-8 26-26.6 26H801v-16c7 0 11.3-1 13-3 1.6-2 2-6 2-14 0-9.5.7-16.2 2-20 1.6-5.7 5.6-10.7 12-15-6-4.2-10.5-9-12-14.7-1.3-4-2-10.7-2-20.2 0-7.8-.4-12-2-14-1.7-2-6.4-3-13-3v-15z"/>
	<path fill="#AAA" d="M155.7 125.3h-18l-12-48-12 48h-18l-20-94.6H94c0 2.2.5 5.2 1.3 9.2l10.2 53 11.8-49.3-3.3-13h18c0 1.7.6 4.8 1.7 9.2l12.5 53 10-53c.6-3.7 1-6.8 1-9.3h18.5l-20 94.6zM190.5 51.3c-2.8 0-5-1-7-3.2-2-2-3-4.4-3-7.2 0-3 1-5.5 3-7.6 2-2 4.2-3 7-3 2.6 0 5 1 7 3 1.8 2 2.8 4.6 2.8 7.6 0 2.8-1 5.3-3 7.3-2 2.2-4.2 3.3-6.8 3.3zm-8 74l.2-9.6V71.5c0-4.4 0-7.5-.3-9.2h16c-.2 1.8-.3 4.8-.3 9v43.5c0 4.8.2 8.3.4 10.5h-16zM210.8 125.3c.3-2 .4-5 .4-9.6V40c0-4.5 0-7.6-.4-9.3h16c0 1.8-.3 4.8-.3 9v39.8l9.7-12.8c1.4-1.8 2.4-3.4 3-5h18.4l-19 24.5 20.8 39h-16.6c-.3-1.3-1.4-3.7-3.2-7l-13-25v21.6c0 4.8 0 8.3.3 10.5h-16.2zM274.3 51.3c-2.7 0-5-1-7-3.2-2-2-3-4.4-3-7.2 0-3 1-5.5 3-7.6 2-2 4.3-3 7-3s5 1 7 3 2.8 4.6 2.8 7.6c0 2.8-.8 5.3-2.8 7.3-2 2.2-4.2 3.3-7 3.3zm-8 74l.2-9.6V71.5c0-4.4 0-7.5-.3-9.2h16l-.2 9v43.5c0 4.8 0 8.3.3 10.5h-16zM340.7 72.8c4 6.3 6 13.6 6 22 0 8-2.2 15-6.4 21.2-4.4 6.7-10 10-16.7 10-5 0-9-1.2-12.8-3.5v25c0 5.5 0 9 .3 10.6h-16c0-1.4.2-5 .2-10.4V71.3c0-4.4 0-7.4-.3-9h15v5c3.4-3.7 7.6-5.5 12.6-5.5 7.6 0 13.7 3.6 18 11zm-13 33c1.8-3.2 2.7-7 2.7-11 0-4.5-.7-8.4-2-11.6-2-4.3-4.8-6.4-8.5-6.4-3 0-6 1.6-9.2 4.8v25.7c3.2 3 6.2 4.5 9 4.5 3.4 0 6-2 8-6zM400.8 98.6h-31.5c.8 9 5.3 13.7 13.5 13.7 5.4 0 10-1.4 14.2-4.2v15.3c-5.7 2.2-10.7 3.3-15.2 3.3-9.3 0-16.6-3.2-21.7-9.5-4.8-6-7.3-14-7.3-24 0-8.4 2-15.6 6-21.5 4.7-6.4 11-9.6 19-9.6 7.6 0 13.6 2.5 17.7 7.8 4 5 6 11.7 6 20 0 3.3-.3 6.2-.6 8.8zM378 75c-5.5 0-8.4 3.5-8.8 10.7h17.4c0-7.2-3-10.8-8.6-10.8zM414 114.8c-4-6.2-5.8-13.6-5.8-22 0-8 2-15 6-21 4.6-6.6 10.3-10 17-10 4.7 0 9 1.3 12.7 3.6v-24c0-5.5-.2-9-.3-10.7h16c-.2 1.5-.3 5-.3 10.6v75c0 4.4 0 7.4.4 9h-15v-5c-3.4 3.6-7.6 5.4-12.6 5.4-7.7 0-13.8-3.6-18.2-11zm13-33c-1.8 3.3-2.6 7-2.6 11 0 4.6.7 8.4 2 11.7 2 4 4.7 6.2 8.5 6.2 2.7 0 5.7-1.6 9-4.7V80.6c-3.3-3-6.4-4.5-9.3-4.5-3.2 0-5.8 2-7.8 6zM479.4 51.3c-2.7 0-5-1-7-3.2-2-2-3-4.4-3-7.2 0-3 1-5.5 3-7.6 2-2 4.3-3 7-3s5 1 7 3c1.8 2 2.8 4.6 2.8 7.6 0 2.8-1 5.3-3 7.3-2 2.2-4 3.3-6.8 3.3zm-8 74l.2-9.6V71.5c0-4.4 0-7.5-.3-9.2h16l-.2 9v43.5c0 4.8.2 8.3.3 10.5h-16zM529 125.3V120c-4.4 4.3-9.2 6.5-14.3 6.5-5.3 0-9.6-2-13-5.7-3.3-3.7-5-8.3-5-14 0-6.7 2.3-12 6.8-16 4.3-4 9.6-6 16-6 3 0 6 .5 8.7 1.2v-1.4c0-6-3.2-9-9.6-9-4 0-9 1.2-15 3.5V64.7c7-2 12.6-2.8 16.8-2.8 8.7 0 14.7 2 18 5.7 3.3 3.8 5 10.3 5 19.4v29.7c0 4 0 7 .4 8.6H529zm-.8-26.2c-2-.8-4-1.2-6.4-1.2-2.6 0-4.8.6-6.6 1.7-2.2 1.4-3.3 3.4-3.3 6 0 2 .6 3.5 2 4.7 1.3 1.2 3 1.8 4.7 1.8 2.7 0 5-1 6.8-2.6 1.8-1.8 2.7-4 2.7-6.5v-4z"/>
	</svg>